<svg width="571" height="452" viewBox="0 0 571 452" fill="none" xmlns="http://www.w3.org/2000/svg">
<path opacity="0.3" d="M570.5 215C570.5 219.257 568.578 223.456 564.83 227.561C561.08 231.669 555.525 235.656 548.33 239.47C533.94 247.097 513.084 253.98 487.27 259.767C435.65 271.338 364.313 278.5 285.5 278.5C206.687 278.5 135.35 271.338 83.7304 259.767C57.9164 253.98 37.0604 247.097 22.6701 239.47C15.4746 235.656 9.91982 231.669 6.16963 227.561C2.42198 223.456 0.5 219.257 0.5 215C0.5 210.743 2.42198 206.544 6.16963 202.439C9.91982 198.331 15.4746 194.344 22.6701 190.53C37.0604 182.903 57.9164 176.02 83.7304 170.233C135.35 158.662 206.687 151.5 285.5 151.5C364.313 151.5 435.65 158.662 487.27 170.233C513.084 176.02 533.94 182.903 548.33 190.53C555.525 194.344 561.08 198.331 564.83 202.439C568.578 206.544 570.5 210.743 570.5 215Z" stroke="white"/>
<path opacity="0.3" d="M570.5 175C570.5 179.257 568.578 183.456 564.83 187.561C561.08 191.669 555.525 195.656 548.33 199.47C533.94 207.097 513.084 213.98 487.27 219.767C435.65 231.338 364.313 238.5 285.5 238.5C206.687 238.5 135.35 231.338 83.7304 219.767C57.9164 213.98 37.0604 207.097 22.6701 199.47C15.4746 195.656 9.91982 191.669 6.16963 187.561C2.42198 183.456 0.5 179.257 0.5 175C0.5 170.743 2.42198 166.544 6.16963 162.439C9.91982 158.331 15.4746 154.344 22.6701 150.53C37.0604 142.903 57.9164 136.02 83.7304 130.233C135.35 118.662 206.687 111.5 285.5 111.5C364.313 111.5 435.65 118.662 487.27 130.233C513.084 136.02 533.94 142.903 548.33 150.53C555.525 154.344 561.08 158.331 564.83 162.439C568.578 166.544 570.5 170.743 570.5 175Z" stroke="white"/>
<path opacity="0.3" d="M570.5 255C570.5 259.257 568.578 263.456 564.83 267.561C561.08 271.669 555.525 275.656 548.33 279.47C533.94 287.097 513.084 293.98 487.27 299.767C435.65 311.338 364.313 318.5 285.5 318.5C206.687 318.5 135.35 311.338 83.7304 299.767C57.9164 293.98 37.0604 287.097 22.6701 279.47C15.4746 275.656 9.91982 271.669 6.16963 267.561C2.42198 263.456 0.5 259.257 0.5 255C0.5 250.743 2.42198 246.544 6.16963 242.439C9.91982 238.331 15.4746 234.344 22.6701 230.53C37.0604 222.903 57.9164 216.02 83.7304 210.233C135.35 198.662 206.687 191.5 285.5 191.5C364.313 191.5 435.65 198.662 487.27 210.233C513.084 216.02 533.94 222.903 548.33 230.53C555.525 234.344 561.08 238.331 564.83 242.439C568.578 246.544 570.5 250.743 570.5 255Z" stroke="white"/>
<path opacity="0.3" d="M570.5 295C570.5 299.257 568.578 303.456 564.83 307.561C561.08 311.669 555.525 315.656 548.33 319.47C533.94 327.097 513.084 333.98 487.27 339.767C435.65 351.338 364.313 358.5 285.5 358.5C206.687 358.5 135.35 351.338 83.7304 339.767C57.9164 333.98 37.0604 327.097 22.6701 319.47C15.4746 315.656 9.91982 311.669 6.16963 307.561C2.42198 303.456 0.5 299.257 0.5 295C0.5 290.743 2.42198 286.544 6.16963 282.439C9.91982 278.331 15.4746 274.344 22.6701 270.53C37.0604 262.903 57.9164 256.02 83.7304 250.233C135.35 238.662 206.687 231.5 285.5 231.5C364.313 231.5 435.65 238.662 487.27 250.233C513.084 256.02 533.94 262.903 548.33 270.53C555.525 274.344 561.08 278.331 564.83 282.439C568.578 286.544 570.5 290.743 570.5 295Z" stroke="white"/>
<circle cx="279" cy="226" r="201.233" fill="url(#paint0_radial_5_5851)"/>
<circle opacity="0.1" cx="279" cy="226" r="225.226" stroke="white" stroke-width="1.54795"/>
<path d="M390.242 277.804C394.454 278.031 397.62 273.136 396.8 268.991C395.98 264.847 392.337 261.773 388.432 260.156C384.526 258.539 380.268 258.05 376.181 257.002C370.091 255.406 364.39 252.586 359.426 248.715C354.462 244.843 350.339 240 347.308 234.482C345.135 230.274 343.352 225.876 341.979 221.343C336.23 197.127 328.317 162.504 326.324 149.012C321.292 114.184 312.411 75.9292 262.634 79.4929C262.634 79.4929 229.537 85.7207 216.842 109.459C205.673 130.329 212.117 193.267 210.637 238.604L221.488 245.139L223.173 245.241C224.428 249.88 226.452 254.275 229.161 258.243C239.067 272.373 252.558 283.724 267.177 292.901C296.779 311.447 332.074 321.569 366.811 318.085C374.143 317.345 381.612 315.967 387.988 312.392C394.363 308.817 399.692 302.544 400.66 295.246C401.627 287.948 397.335 279.785 390.242 277.804Z" fill="url(#paint1_linear_5_5851)"/>
<path d="M256.008 92.4721L259.128 89.5005L292.817 103.015C295.168 103.145 297.384 104.154 299.027 105.841C300.67 107.527 301.619 109.77 301.686 112.123L301.39 221.765C301.39 229.199 299.944 235.643 295.459 241.564L290.734 247.803C279.952 262.035 257.784 260.862 249.257 245.184C248.753 244.294 248.371 243.341 248.118 242.349C247.9 241.545 247.733 240.727 247.617 239.901C246.615 231.078 246.558 223.427 246.558 223.427C245.955 213.749 245.761 209.764 245.75 209.867C245.739 209.969 225.142 207.487 219.564 181.039C216.786 167.878 217.287 149.775 218.095 131.957C219.085 107.341 236.186 92.4493 256.008 92.4721Z" fill="#FFBF9D"/>
<path d="M262.908 150.048C262.943 150.94 263.327 151.783 263.976 152.395C264.625 153.008 265.488 153.343 266.38 153.327C266.821 153.347 267.261 153.278 267.674 153.123C268.086 152.969 268.464 152.732 268.783 152.428C269.102 152.124 269.356 151.758 269.53 151.353C269.704 150.948 269.795 150.512 269.796 150.071C269.763 149.177 269.381 148.331 268.732 147.716C268.083 147.101 267.218 146.765 266.323 146.78C265.882 146.762 265.442 146.833 265.029 146.989C264.616 147.144 264.239 147.382 263.92 147.687C263.601 147.992 263.347 148.359 263.173 148.764C262.999 149.17 262.909 149.607 262.908 150.048Z" fill="#263238"/>
<path d="M228.125 150.048C228.161 150.93 228.536 151.764 229.173 152.376C229.81 152.987 230.658 153.328 231.541 153.327C231.981 153.346 232.42 153.275 232.833 153.12C233.245 152.965 233.622 152.728 233.94 152.424C234.259 152.12 234.513 151.755 234.688 151.351C234.863 150.947 234.954 150.511 234.957 150.071C234.924 149.177 234.542 148.332 233.893 147.716C233.243 147.101 232.379 146.765 231.484 146.781C231.047 146.768 230.613 146.844 230.206 147.003C229.799 147.161 229.428 147.4 229.115 147.705C228.801 148.009 228.552 148.374 228.383 148.776C228.213 149.179 228.125 149.611 228.125 150.048Z" fill="#263238"/>
<path d="M221.533 139.039C221.977 139.471 224.471 137.422 228.148 137.24C231.826 137.058 234.626 138.777 234.979 138.299C235.162 138.094 234.695 137.308 233.477 136.511C231.828 135.487 229.903 134.998 227.966 135.111C226.049 135.199 224.21 135.897 222.717 137.103C221.659 138.025 221.317 138.856 221.533 139.039Z" fill="#263238"/>
<path d="M258.877 139.448C259.367 139.824 261.644 137.524 265.287 136.978C268.931 136.431 271.88 137.831 272.21 137.33C272.369 137.103 271.823 136.374 270.525 135.702C268.78 134.852 266.816 134.562 264.9 134.871C263.006 135.158 261.252 136.039 259.891 137.387C258.9 138.401 258.661 139.255 258.877 139.448Z" fill="#263238"/>
<path d="M246.023 166.216C246.023 165.999 243.746 165.726 239.989 165.441C239.044 165.384 238.145 165.248 237.951 164.61C237.827 163.645 237.998 162.665 238.441 161.798L240.866 154.5C244.213 144.116 246.558 135.6 246.171 135.464C245.784 135.327 242.699 143.638 239.34 154.022C238.543 156.583 237.769 159.02 237.063 161.354C236.53 162.522 236.425 163.84 236.767 165.077C236.92 165.401 237.145 165.686 237.425 165.909C237.706 166.132 238.034 166.288 238.384 166.364C238.911 166.48 239.45 166.53 239.989 166.512C243.701 166.523 246.023 166.42 246.023 166.216Z" fill="#263238"/>
<path d="M245.659 209.901C258.246 209.466 270.465 205.544 280.953 198.573C280.953 198.573 272.893 217.495 246.08 216.334L245.659 209.901Z" fill="#FF9A6C"/>
<path d="M248.027 175.005C248.683 174.089 249.561 173.356 250.579 172.873C251.597 172.391 252.721 172.177 253.845 172.25C254.66 172.281 255.461 172.476 256.198 172.824C256.936 173.173 257.596 173.666 258.137 174.276C258.661 174.864 258.991 175.599 259.083 176.382C259.174 177.164 259.023 177.955 258.65 178.648C258.093 179.34 257.343 179.849 256.495 180.111C255.647 180.372 254.74 180.375 253.891 180.117C252.118 179.592 250.469 178.717 249.04 177.544C248.6 177.272 248.214 176.921 247.902 176.508C247.755 176.311 247.671 176.075 247.659 175.829C247.646 175.584 247.707 175.341 247.834 175.13" fill="#FF9A6C"/>
<path d="M256.988 168.219C256.384 168.219 256.578 172.204 253.299 175.21C250.02 178.216 245.75 177.999 245.739 178.557C245.739 178.808 246.729 179.286 248.528 179.24C250.871 179.161 253.11 178.253 254.847 176.678C256.517 175.171 257.534 173.071 257.682 170.826C257.75 169.153 257.249 168.185 256.988 168.219Z" fill="#263238"/>
<path d="M255.359 125.08C255.872 126.013 259.435 124.977 263.785 124.841C268.134 124.704 271.754 125.342 272.21 124.363C272.392 123.896 271.652 123.065 270.103 122.313C268.064 121.424 265.848 121.011 263.625 121.106C261.401 121.2 259.229 121.8 257.272 122.86C255.803 123.725 255.132 124.647 255.359 125.08Z" fill="#263238"/>
<path d="M222.057 123.224C222.752 124.032 225.245 123.042 228.285 122.837C231.325 122.632 233.978 123.122 234.501 122.222C234.74 121.778 234.285 120.958 233.124 120.23C231.561 119.358 229.775 118.969 227.991 119.113C226.208 119.257 224.507 119.927 223.104 121.038C222.068 121.96 221.75 122.837 222.057 123.224Z" fill="#263238"/>
<path d="M300.969 158.951C300.969 158.951 282.126 164.815 271.458 118.294C267.803 102.355 253.059 89.5006 253.059 89.5006L259.037 87.7017C259.037 87.7017 296.21 98.1762 296.836 98.643C297.462 99.1098 306.218 117.873 306.218 117.873L300.969 158.951Z" fill="url(#paint2_linear_5_5851)"/>
<path d="M296.324 157.221C296.233 155.228 298.294 150.39 300.24 150.025C305.432 148.944 314.893 148.887 315.656 162.196C316.681 180.413 298.225 177.658 298.157 177.134C298.089 176.61 296.654 164.075 296.324 157.221Z" fill="#FFBF9D"/>
<path d="M303.326 169.938C303.394 169.87 303.656 170.143 304.203 170.36C304.974 170.635 305.822 170.602 306.571 170.269C308.449 169.46 309.895 166.318 309.793 163.039C309.755 161.477 309.366 159.944 308.654 158.553C308.449 157.999 308.114 157.502 307.676 157.106C307.238 156.709 306.71 156.425 306.138 156.276C305.768 156.201 305.383 156.257 305.05 156.436C304.718 156.615 304.458 156.905 304.317 157.255C304.1 157.779 304.237 158.132 304.146 158.166C304.055 158.2 303.736 157.881 303.838 157.13C303.921 156.688 304.149 156.287 304.487 155.991C304.97 155.588 305.59 155.388 306.218 155.433C306.964 155.546 307.669 155.846 308.266 156.306C308.864 156.766 309.334 157.371 309.633 158.063C310.499 159.591 310.976 161.307 311.023 163.062C311.114 166.728 309.429 170.269 306.844 171.179C306.363 171.348 305.851 171.406 305.345 171.351C304.839 171.296 304.351 171.128 303.918 170.861C303.383 170.371 303.258 169.973 303.326 169.938Z" fill="#FF9A6C"/>
<path d="M316.328 225.909C316.05 223.803 315.917 221.68 315.93 219.556C316.011 213.762 316.602 207.986 317.694 202.295C318.343 198.686 319.049 194.735 319.812 190.5C320.638 185.984 321.181 181.421 321.44 176.838C321.748 171.792 321.365 166.728 320.302 161.786C319.709 159.189 318.851 156.659 317.74 154.238C316.575 151.756 315.131 149.414 313.436 147.258C310.02 143.057 306.207 139.195 302.051 135.725C298.066 132.309 294.252 128.894 290.859 125.421C284.816 119.302 279.343 112.644 274.51 105.531C271.246 100.747 268.287 95.7616 265.652 90.6047C264.718 88.783 264.035 87.3484 263.591 86.3579C263.375 85.8797 263.204 85.5154 263.09 85.2194C263.024 85.0958 262.971 84.9662 262.931 84.8323C263.01 84.9472 263.079 85.0691 263.136 85.1966C263.272 85.4547 263.454 85.8342 263.682 86.3352C264.149 87.3029 264.821 88.7261 265.823 90.5363C268.522 95.6434 271.521 100.586 274.806 105.337C279.664 112.399 285.147 119.011 291.189 125.091C294.605 128.507 298.385 131.922 302.37 135.338C306.578 138.818 310.437 142.7 313.892 146.928C315.612 149.114 317.075 151.49 318.252 154.01C319.377 156.463 320.243 159.028 320.837 161.661C321.887 166.647 322.25 171.753 321.918 176.838C321.636 181.422 321.073 185.985 320.233 190.5C319.448 194.735 318.719 198.686 318.059 202.284C316.935 207.954 316.291 213.709 316.135 219.487C316.135 221.537 316.135 223.131 316.26 224.201L316.34 225.43C316.356 225.59 316.353 225.75 316.328 225.909Z" fill="#F010BF"/>
<path d="M322.18 227.628C321.896 225.523 321.762 223.399 321.782 221.275C321.866 215.477 322.461 209.697 323.558 204.003C324.207 200.394 324.913 196.443 325.675 192.208C326.496 187.691 327.04 183.129 327.304 178.546C327.612 173.5 327.229 168.436 326.165 163.494C325.572 160.897 324.714 158.367 323.603 155.946C322.438 153.464 320.994 151.122 319.3 148.966C315.863 144.765 312.031 140.903 307.857 137.433C303.872 134.017 300.058 130.602 296.666 127.129C290.62 121.012 285.147 114.355 280.316 107.239C277.052 102.455 274.094 97.4696 271.458 92.3127C270.525 90.491 269.842 89.0565 269.398 88.0659L268.885 86.9274C268.825 86.8026 268.776 86.6731 268.737 86.5403L268.942 86.9046C269.067 87.1779 269.25 87.5308 269.489 88.0432C269.955 89.0223 270.627 90.4341 271.629 92.2444C274.328 97.3514 277.328 102.294 280.612 107.045C285.467 114.107 290.946 120.718 296.984 126.799C300.4 130.215 304.18 133.63 308.176 137.046C312.384 140.526 316.243 144.408 319.698 148.636C321.414 150.825 322.877 153.2 324.059 155.718C325.184 158.171 326.05 160.736 326.643 163.369C327.687 168.356 328.051 173.461 327.725 178.546C327.442 183.13 326.88 187.693 326.04 192.208C325.254 196.443 324.526 200.394 323.865 203.992C322.741 209.666 322.097 215.425 321.941 221.207C321.941 223.245 321.941 224.839 322.055 225.909C322.055 226.433 322.123 226.842 322.135 227.138C322.174 227.299 322.189 227.464 322.18 227.628Z" fill="#F010BF"/>
<path d="M192.068 253.826C184.223 258.835 175.457 266.953 171.301 275.287C163.787 290.384 111.084 330.939 109.023 340.765C104.287 382.72 150.693 382.173 169.479 359.733C179.202 348.119 200.63 304.605 200.63 304.605L192.068 253.826Z" fill="url(#paint3_linear_5_5851)"/>
<path d="M132.363 318.7C132.363 318.7 167.202 262.615 174.033 254.771C184.497 242.771 202.679 237.966 202.679 237.966L206.596 311.504C206.835 310.491 170.595 356.807 170.595 356.807C170.595 356.807 136.746 331.656 132.363 318.7Z" fill="url(#paint4_linear_5_5851)"/>
<path d="M154.007 261.955L116.127 334.287C114.281 337.748 113.792 341.774 114.756 345.577C115.721 349.379 118.069 352.686 121.342 354.849L121.501 354.951C136.029 364.139 155.282 355.168 158.481 338.283L171.813 270.688L154.007 261.955Z" fill="#FFBF9D"/>
<path d="M190.861 199.017L166.553 257.059L172.086 259.382L195.654 200.69L190.861 199.017Z" fill="#455A64"/>
<path d="M230.039 175.648C231.355 159.472 220.283 145.372 205.311 144.154C190.338 142.936 177.134 155.062 175.818 171.238C174.503 187.414 185.574 201.514 200.546 202.732C215.519 203.95 228.723 191.824 230.039 175.648Z" fill="#FFBF9D"/>
<path d="M230.129 173.456C229.955 172.853 229.863 172.229 229.856 171.601C229.856 171.293 229.856 170.952 229.776 170.587C229.697 170.223 229.651 169.813 229.571 169.369C229.439 168.363 229.242 167.366 228.979 166.386C228.334 163.724 227.322 161.164 225.974 158.781C224.258 155.694 221.971 152.962 219.233 150.731C216.024 148.1 212.215 146.301 208.144 145.494C207.046 145.289 205.935 145.16 204.82 145.107C204.25 145.107 203.681 145.027 203.1 145.038L201.358 145.152C201.074 145.152 200.778 145.152 200.482 145.209L199.605 145.357C199.024 145.471 198.466 145.551 197.84 145.676C196.647 145.974 195.475 146.355 194.334 146.815C193.157 147.274 192.016 147.818 190.918 148.443C190.36 148.773 189.779 149.149 189.278 149.502C188.718 149.838 188.185 150.219 187.684 150.64C186.621 151.48 185.616 152.393 184.679 153.373C183.74 154.405 182.873 155.501 182.083 156.652C180.417 159.034 179.123 161.656 178.246 164.428C177.355 167.319 176.865 170.318 176.789 173.343C176.785 176.357 177.199 179.357 178.018 182.257C178.822 185.024 180.047 187.651 181.65 190.045C183.12 192.342 184.959 194.381 187.092 196.079C187.588 196.491 188.109 196.872 188.652 197.218C189.199 197.571 189.722 197.958 190.269 198.277C191.369 198.903 192.51 199.454 193.685 199.927C194.819 200.386 195.983 200.766 197.169 201.066C197.749 201.203 198.307 201.282 198.933 201.385L199.799 201.544C200.095 201.544 200.391 201.544 200.675 201.612L202.417 201.726C202.998 201.726 203.556 201.726 204.136 201.658C205.256 201.614 206.371 201.489 207.472 201.282C211.577 200.482 215.426 198.697 218.687 196.079C221.484 193.859 223.843 191.137 225.643 188.052C227.054 185.676 228.13 183.117 228.843 180.447C229.134 179.473 229.359 178.48 229.514 177.475C229.594 177.031 229.685 176.633 229.742 176.257L229.856 175.244C229.874 174.613 229.982 173.989 230.175 173.388C230.312 174.008 230.347 174.647 230.277 175.278C230.277 175.585 230.277 175.938 230.277 176.314C230.277 176.69 230.198 177.111 230.152 177.566C230.051 178.609 229.88 179.644 229.64 180.663C229.049 183.476 228.043 186.184 226.657 188.701C224.876 192.012 222.476 194.95 219.586 197.354C216.179 200.259 212.102 202.27 207.723 203.206C206.552 203.453 205.365 203.613 204.171 203.685C203.567 203.685 202.952 203.776 202.337 203.776L200.47 203.685C200.163 203.685 199.844 203.685 199.537 203.616L198.603 203.468C197.977 203.366 197.339 203.286 196.702 203.149C194.109 202.527 191.615 201.55 189.29 200.246C188.698 199.905 188.151 199.506 187.548 199.108C186.951 198.73 186.384 198.307 185.851 197.844C183.534 196.039 181.536 193.856 179.942 191.388C178.201 188.809 176.872 185.974 176.003 182.986C174.127 176.692 174.214 169.976 176.254 163.733C177.202 160.744 178.604 157.918 180.409 155.354C181.272 154.12 182.216 152.945 183.233 151.836C184.254 150.791 185.342 149.814 186.489 148.909C187.035 148.456 187.609 148.037 188.208 147.657C188.8 147.281 189.347 146.883 189.984 146.519C191.179 145.858 192.419 145.283 193.696 144.799C194.927 144.329 196.19 143.948 197.476 143.661C198.102 143.524 198.74 143.456 199.377 143.342L200.311 143.205C200.625 143.169 200.94 143.15 201.256 143.148L203.112 143.057C203.738 143.057 204.341 143.126 204.945 143.148C206.136 143.223 207.319 143.387 208.486 143.638C212.797 144.567 216.806 146.563 220.144 149.445C225.144 153.778 228.538 159.67 229.776 166.17C229.99 167.191 230.131 168.226 230.198 169.267C230.198 169.722 230.289 170.132 230.3 170.519C230.311 170.906 230.3 171.248 230.3 171.555C230.345 172.194 230.287 172.836 230.129 173.456Z" fill="#263238"/>
<path d="M211.298 178.033C211.363 179.541 210.848 181.016 209.859 182.155C208.87 183.295 207.482 184.012 205.981 184.159C205.255 184.204 204.528 184.1 203.843 183.855C203.158 183.61 202.531 183.228 201.998 182.733C201.466 182.238 201.04 181.64 200.746 180.975C200.452 180.31 200.296 179.592 200.288 178.865C200.225 177.358 200.741 175.884 201.73 174.746C202.718 173.607 204.105 172.889 205.605 172.739C206.331 172.694 207.058 172.798 207.743 173.043C208.427 173.288 209.055 173.669 209.587 174.165C210.12 174.66 210.546 175.258 210.84 175.923C211.134 176.588 211.29 177.306 211.298 178.033Z" fill="#263238"/>
<path d="M213.211 162.845C212.528 163.631 208.326 160.352 202.36 160.477C196.394 160.602 192.045 163.893 191.396 163.107C191.077 162.766 191.783 161.342 193.673 159.817C196.186 157.863 199.269 156.784 202.451 156.743C205.569 156.689 208.612 157.696 211.082 159.601C212.926 161.081 213.552 162.481 213.211 162.845Z" fill="#263238"/>
<path d="M188.129 192.265C187.992 192.493 186.125 191.559 183.87 188.998C180.909 185.507 179.002 181.246 178.371 176.713C177.718 172.096 178.349 167.389 180.193 163.107C181.627 159.885 183.13 158.348 183.335 158.553C183.54 158.758 182.561 160.568 181.571 163.722C180.266 167.803 179.877 172.122 180.432 176.371C181.046 180.542 182.604 184.517 184.986 187.996C186.842 190.614 188.333 191.981 188.129 192.265Z" fill="white"/>
<path d="M195.427 196.819C195.388 196.996 195.297 197.156 195.165 197.278C195.032 197.4 194.865 197.479 194.687 197.503C194.135 197.609 193.563 197.508 193.081 197.218C192.572 196.95 192.171 196.516 191.943 195.988C191.855 195.826 191.815 195.642 191.83 195.459C191.844 195.275 191.911 195.099 192.022 194.952C192.478 194.542 193.298 194.793 194.06 195.191C194.823 195.59 195.472 196.193 195.427 196.819Z" fill="white"/>
<path d="M158.23 252.915C158.23 252.915 169.16 223.951 170.754 222.448C172.348 220.945 188.481 207.396 188.481 207.396C190.167 207.123 191.896 207.361 193.445 208.08C195.028 209.002 198.876 215.082 200.413 217.575C200.62 217.912 200.757 218.287 200.818 218.678C200.878 219.069 200.861 219.468 200.766 219.852L199.013 225.545C199.013 225.545 201.119 228.858 200.618 231.237C200.266 232.803 199.683 234.307 198.888 235.701C199.962 237.774 200.221 240.174 199.616 242.429C198.797 244.543 197.212 246.271 195.176 247.268C195.176 247.268 193.924 253.302 193.764 254.441C193.605 255.579 187.662 258.289 187.047 258.118C186.432 257.948 182.106 256.103 182.106 256.103C182.106 256.103 180.102 265.826 177.597 268.024C175.924 269.384 173.935 270.301 171.813 270.688L168.716 286.183L149.509 271.519L158.23 252.915Z" fill="#FFBF9D"/>
<path d="M184.713 244.194C186.492 244.621 188.238 245.172 189.939 245.845C191.686 246.384 193.404 247.015 195.085 247.735C193.276 247.443 191.505 246.954 189.802 246.277C188.047 245.737 186.344 245.039 184.713 244.194Z" fill="#FF9A6C"/>
<path d="M184.861 232.103C185.587 232.121 186.309 232.22 187.013 232.399C188.333 232.66 190.144 233.07 192.113 233.605C194.083 234.141 195.859 234.744 197.123 235.188C197.821 235.397 198.493 235.684 199.127 236.042C198.414 235.92 197.713 235.737 197.032 235.495C195.745 235.12 193.969 234.596 192 234.049C190.03 233.503 188.242 233.048 186.956 232.717C186.238 232.584 185.537 232.378 184.861 232.103Z" fill="#FF9A6C"/>
<path d="M182.777 222.687C183.569 222.573 184.372 222.554 185.168 222.63C187.079 222.703 188.981 222.916 190.861 223.267C192.752 223.614 194.616 224.093 196.44 224.702C197.213 224.916 197.959 225.222 198.66 225.613C197.887 225.47 197.125 225.268 196.383 225.009C194.971 224.622 192.967 224.121 190.804 223.711C188.641 223.301 186.603 223.085 185.111 222.949C184.328 222.918 183.548 222.83 182.777 222.687Z" fill="#FF9A6C"/>
<path d="M194.801 224.178C194.282 222.826 194.121 221.364 194.334 219.932C193.69 219.997 193.04 219.918 192.431 219.699C191.822 219.48 191.27 219.128 190.816 218.668C189.802 219.943 188.447 221.708 187.4 222.983L194.801 224.178Z" fill="#455A64"/>
<path d="M195.085 248.475L200.71 315.136C200.71 315.136 211.048 381.98 210.285 386.705C209.522 391.43 201.01 411.582 201.01 411.582C239.151 428.091 293.232 436.63 353.684 412.982L340.192 381.957L355.221 243.158L300.855 224.588C300.855 224.588 297.576 244.399 271.527 242.202C245.477 240.004 245.944 225.624 245.944 225.624L199.73 238.843L195.085 248.475Z" fill="url(#paint5_linear_5_5851)"/>
<path d="M402.531 384.826C402.531 384.826 368.507 244.194 353.82 243.055L342.799 349.167L363.252 408.735C371.222 405.32 388.869 396.211 402.531 384.826Z" fill="url(#paint6_linear_5_5851)"/>
<path d="M351.554 269.766C351.725 269.766 350.268 286.65 348.298 307.44C346.329 328.23 344.621 345.08 344.45 345.069C344.279 345.057 345.748 328.184 347.706 307.383C349.664 286.582 351.395 269.743 351.554 269.766Z" fill="#263238"/>
<path d="M195.802 268.559C195.875 268.799 195.917 269.048 195.928 269.299C195.996 269.845 196.087 270.551 196.19 271.439C196.395 273.363 196.691 275.993 197.043 279.295C197.749 285.944 198.694 295.121 199.856 305.231C201.017 315.341 202.224 324.506 203.18 331.11C203.67 334.366 204.057 337.019 204.319 338.932L204.626 341.061C204.679 341.308 204.702 341.56 204.694 341.812C204.609 341.576 204.548 341.332 204.512 341.084C204.398 340.537 204.262 339.843 204.091 338.977C203.738 337.144 203.283 334.48 202.748 331.178C201.677 324.575 200.47 315.432 199.252 305.299C198.034 295.166 197.203 285.944 196.599 279.341C196.326 276.062 196.099 273.386 195.939 271.45C195.882 270.574 195.825 269.857 195.791 269.31C195.762 269.06 195.766 268.808 195.802 268.559Z" fill="#263238"/>
<path d="M239.943 228.983L245.26 220.489L273.246 243.101L300.605 216.402L309.326 227.435L276.206 262.923L239.943 228.983Z" fill="url(#paint7_linear_5_5851)"/>
<path d="M272.323 245.07C272.278 245.531 272.198 245.988 272.084 246.437C271.891 247.313 271.595 248.6 271.151 250.194C269.917 254.549 268.325 258.795 266.392 262.889L266.198 263.31L265.925 262.934C263.648 259.86 261.234 256.479 258.604 252.938C253.481 246.027 248.733 239.856 245.272 235.393L241.173 230.121L240.034 228.675C239.784 228.334 239.659 228.152 239.682 228.14C239.846 228.276 239.994 228.428 240.126 228.596L241.264 229.973C242.277 231.18 243.735 232.945 245.511 235.142C249.052 239.526 253.856 245.674 258.991 252.585C261.621 256.126 264.08 259.519 266.278 262.615H265.811C267.759 258.567 269.407 254.381 270.741 250.091C271.23 248.509 271.583 247.245 271.879 246.38C271.992 245.932 272.141 245.494 272.323 245.07Z" fill="#263238"/>
<path d="M307.983 228.926C307.92 229.103 307.836 229.271 307.732 229.427L306.935 230.804C306.218 231.943 305.159 233.685 303.759 235.734C300.125 241.068 296.107 246.129 291.736 250.877C288.832 254.019 285.941 256.854 283.322 259.257L283.128 259.427L282.946 259.245C280.334 256.563 278.156 253.49 276.491 250.137C275.899 248.907 275.489 247.86 275.238 247.222C275.097 246.872 274.986 246.51 274.908 246.141C275.107 246.46 275.271 246.8 275.398 247.154C275.694 247.826 276.149 248.793 276.775 249.989C278.51 253.271 280.72 256.278 283.333 258.915H282.958C285.553 256.501 288.411 253.655 291.292 250.524C295.643 245.792 299.693 240.792 303.417 235.552C304.852 233.537 305.967 231.886 306.742 230.736L307.618 229.393C307.846 229.063 307.96 228.915 307.983 228.926Z" fill="#263238"/>
<path d="M273.587 425.552C273.428 425.552 273.291 386.09 273.291 337.429C273.291 288.768 273.428 249.306 273.587 249.306C273.747 249.306 273.883 288.756 273.883 337.429C273.883 386.101 273.747 425.552 273.587 425.552Z" fill="#263238"/>
<path d="M287.512 371.3C287.512 371.46 276.126 369.023 262.19 365.801C248.255 362.579 236.96 359.892 237.006 359.733C237.052 359.573 248.391 362.01 262.327 365.22C276.263 368.431 287.546 371.141 287.512 371.3Z" fill="#263238"/>
<path d="M157.525 359.812C157.422 359.744 158.663 358.367 159.984 355.816C160.778 354.321 161.429 352.754 161.931 351.137C163.172 347.171 163.514 342.978 162.933 338.863C162.71 337.188 162.329 335.537 161.794 333.933C160.872 331.19 159.916 329.641 160.018 329.584C160.302 329.902 160.539 330.259 160.724 330.643C160.988 331.065 161.221 331.507 161.419 331.964C161.712 332.559 161.971 333.171 162.193 333.797C162.799 335.41 163.237 337.081 163.502 338.784C163.805 340.876 163.882 342.994 163.73 345.103C163.532 347.209 163.112 349.289 162.477 351.308C161.938 352.947 161.232 354.526 160.371 356.021C160.046 356.596 159.693 357.155 159.312 357.695C159.037 358.093 158.737 358.473 158.413 358.833C157.855 359.505 157.559 359.847 157.525 359.812Z" fill="#263238"/>
<defs>
<radialGradient id="paint0_radial_5_5851" cx="0" cy="0" r="1" gradientUnits="userSpaceOnUse" gradientTransform="translate(279 226) rotate(90) scale(201.233)">
<stop stop-color="#FFFF14"/>
<stop offset="1" stop-color="#FFFF99"/>
</radialGradient>
<linearGradient id="paint1_linear_5_5851" x1="305.45" y1="79.2615" x2="305.45" y2="318.765" gradientUnits="userSpaceOnUse">
<stop stop-color="#342D31"/>
<stop offset="1" stop-color="#7D2D58"/>
</linearGradient>
<linearGradient id="paint2_linear_5_5851" x1="279.639" y1="87.7017" x2="279.639" y2="159.189" gradientUnits="userSpaceOnUse">
<stop stop-color="#2B2B2B"/>
<stop offset="1" stop-color="#613B4F"/>
</linearGradient>
<linearGradient id="paint3_linear_5_5851" x1="154.658" y1="253.826" x2="154.658" y2="374.899" gradientUnits="userSpaceOnUse">
<stop stop-color="#9B3C6D"/>
<stop offset="1" stop-color="#E664A8"/>
</linearGradient>
<linearGradient id="paint4_linear_5_5851" x1="169.48" y1="237.966" x2="169.48" y2="356.807" gradientUnits="userSpaceOnUse">
<stop stop-color="#9B3C6D"/>
<stop offset="1" stop-color="#E664A8"/>
</linearGradient>
<linearGradient id="paint5_linear_5_5851" x1="324.542" y1="232.831" x2="243.136" y2="445.169" gradientUnits="userSpaceOnUse">
<stop stop-color="#B33A79"/>
<stop offset="0.40625" stop-color="#E664A8"/>
<stop offset="1" stop-color="#291031"/>
</linearGradient>
<linearGradient id="paint6_linear_5_5851" x1="372.27" y1="243.055" x2="372.27" y2="408.371" gradientUnits="userSpaceOnUse">
<stop stop-color="#9B3C6D"/>
<stop offset="1" stop-color="#E664A8"/>
</linearGradient>
<linearGradient id="paint7_linear_5_5851" x1="274.635" y1="216.402" x2="274.635" y2="262.923" gradientUnits="userSpaceOnUse">
<stop stop-color="#9B3C6D"/>
<stop offset="1" stop-color="#E664A8"/>
</linearGradient>
</defs>
</svg>
