<svg width="500" height="500" viewBox="0 0 500 500" fill="none" xmlns="http://www.w3.org/2000/svg">
<path d="M380.56 408.9C365.01 398.03 361.48 377.9 362.1 359.74C362.2 356.74 361.87 353.52 363.31 350.87C364.75 348.22 368.11 346.4 370.82 347.67C373.06 348.73 374.04 351.34 375.3 353.51C376.982 356.39 379.443 358.737 382.4 360.28C384.33 361.28 386.71 361.9 388.61 360.85C391.22 359.41 391.53 355.8 391.51 352.79C391.51 347.177 391.477 341.567 391.41 335.96C391.23 332.951 391.534 329.933 392.31 327.02C393.25 324.17 395.31 321.51 398.18 320.71C401.05 319.91 404.59 321.56 405.18 324.51C405.29 325.754 405.32 327.003 405.27 328.25C405.35 329.5 405.93 330.89 407.12 331.25C408.31 331.61 409.52 330.75 410.42 329.87C413.53 326.87 415.64 322.87 417.61 319.02C419.58 315.17 421.49 311.15 424.31 307.83C427.13 304.51 431.03 301.89 435.31 301.65C439.59 301.41 444.21 304.06 445.31 308.29C446.41 312.52 443.93 316.84 441.23 320.29C437.232 325.387 432.517 329.877 427.23 333.62C426.204 334.193 425.385 335.075 424.89 336.14C424.24 338.14 426.14 340.14 428.12 340.8C430.37 341.54 432.8 341.31 435.12 341.59C437.44 341.87 440.01 342.9 440.89 345.12C442.13 348.19 439.55 351.42 437.02 353.53C431.96 357.759 426.209 361.084 420.02 363.36C417.81 364.17 415.48 364.88 413.69 366.44C411.9 368 410.83 370.7 411.91 372.82C412.99 374.94 415.75 375.62 418.07 375.19C420.39 374.76 422.47 373.5 424.68 372.66C428.81 371.1 434.16 371.39 436.8 374.96C437.608 376.192 438.119 377.594 438.293 379.057C438.466 380.52 438.298 382.003 437.8 383.39C436.791 386.146 435.24 388.672 433.24 390.82C426.685 398.694 418.158 404.687 408.53 408.19C398.93 411.52 390.04 412.42 380.53 408.93" fill="#F5F5F5"/>
<path d="M380.33 422.34C381.17 413.932 382.814 405.624 385.24 397.53C388.255 387.667 391.831 377.985 395.95 368.53L399.15 361.06C400.2 358.61 401.25 356.19 402.42 353.87C404.674 349.445 407.171 345.148 409.9 341C412.48 337 415.07 333.32 417.52 329.89C419.97 326.46 422.33 323.31 424.6 320.53C428.148 316.119 432.044 311.999 436.25 308.21C437.73 306.86 438.92 305.86 439.73 305.21L440.66 304.46C440.759 304.365 440.87 304.285 440.99 304.22C440.901 304.321 440.804 304.415 440.7 304.5L439.81 305.3C439.02 306 437.81 307.02 436.39 308.39C432.256 312.234 428.415 316.383 424.9 320.8C422.66 323.59 420.33 326.74 417.9 330.18C415.47 333.62 412.9 337.31 410.34 341.3C407.631 345.448 405.151 349.741 402.91 354.16C401.75 356.46 400.72 358.87 399.66 361.33L396.47 368.79C392.355 378.249 388.772 387.931 385.74 397.79C383.304 405.849 381.63 414.118 380.74 422.49" fill="#E0E0E0"/>
<path d="M402.58 353.82C402.433 353.406 402.332 352.976 402.28 352.54C402.12 351.71 401.94 350.54 401.72 349C401.3 346 400.85 341.84 400.38 337.26C399.91 332.68 399.38 328.53 398.93 325.55C398.7 324.05 398.5 322.85 398.35 322.02C398.247 321.591 398.19 321.151 398.18 320.71C398.354 321.114 398.482 321.537 398.56 321.97C398.77 322.79 399.03 323.97 399.31 325.48C399.88 328.48 400.45 332.6 400.93 337.2C401.41 341.8 401.8 345.82 402.11 348.95C402.26 350.36 402.39 351.55 402.5 352.51C402.565 352.943 402.591 353.382 402.58 353.82Z" fill="#E0E0E0"/>
<path d="M441.27 346.59C440.763 346.699 440.248 346.763 439.73 346.78C438.73 346.86 437.3 346.98 435.53 347.19C431.98 347.57 427.11 348.27 421.76 349.28C416.41 350.29 411.61 351.42 408.16 352.34C406.44 352.78 405.05 353.18 404.09 353.45C403.601 353.626 403.095 353.75 402.58 353.82C403.042 353.584 403.524 353.39 404.02 353.24C405.02 352.91 406.34 352.45 408.02 351.96C411.45 350.96 416.25 349.75 421.62 348.73C426.194 347.85 430.81 347.206 435.45 346.8C437.23 346.64 438.68 346.58 439.68 346.56C440.21 346.515 440.742 346.526 441.27 346.59Z" fill="#E0E0E0"/>
<path d="M385.72 396.82C385.72 396.82 385.61 396.67 385.46 396.35L384.79 394.95C384.22 393.73 383.45 391.95 382.51 389.73C380.65 385.3 378.26 379.09 375.72 372.21C373.18 365.33 370.85 359.11 369.08 354.64L367 349.36C366.77 348.78 366.58 348.31 366.43 347.92C366.352 347.755 366.299 347.58 366.27 347.4C366.38 347.543 366.467 347.701 366.53 347.87L367.2 349.27C367.76 350.49 368.54 352.27 369.47 354.49C371.34 358.93 373.73 365.13 376.27 372.01C378.81 378.89 381.13 385.12 382.91 389.58L385.02 394.86C385.25 395.44 385.43 395.92 385.59 396.31C385.655 396.474 385.699 396.645 385.72 396.82Z" fill="#E0E0E0"/>
<path d="M437.14 380.25C436.981 380.344 436.809 380.415 436.63 380.46L435.14 380.96L429.63 382.75C424.98 384.25 418.58 386.41 411.52 388.8C404.46 391.19 398.03 393.29 393.35 394.71C391 395.41 389.11 395.97 387.79 396.32L386.26 396.72C386.087 396.783 385.904 396.817 385.72 396.82C385.88 396.728 386.052 396.657 386.23 396.61L387.72 396.11L393.23 394.33C397.88 392.82 404.23 390.66 411.34 388.27C418.45 385.88 424.83 383.78 429.51 382.37C431.86 381.66 433.76 381.11 435.08 380.75L436.6 380.35C436.775 380.294 436.956 380.26 437.14 380.25Z" fill="#E0E0E0"/>
<path d="M462.4 332.46C462.249 332.276 462.116 332.078 462 331.87L461 330.26C460.16 328.88 459 326.94 457.6 324.61L457.91 324.69L450 329.32C450 329.39 450.18 328.64 450.09 328.96V329.03L450.17 329.16L450.32 329.44L450.64 329.98L451.25 331.04L452.43 333.1L454.58 336.87L454.27 336.79C456.63 335.46 458.62 334.36 460.04 333.59L461.71 332.7C461.912 332.574 462.126 332.47 462.35 332.39C462.188 332.518 462.018 332.635 461.84 332.74L460.27 333.74C458.91 334.58 456.92 335.79 454.5 337.21L454.3 337.32L454.19 337.13C453.51 335.97 452.77 334.71 452 333.38L450.8 331.33L450.19 330.27L449.87 329.73L449.72 329.45L449.64 329.32V329.25C449.56 329.57 449.76 328.82 449.74 328.9L457.74 324.33L457.93 324.22L458.04 324.41C459.43 326.85 460.55 328.9 461.31 330.3C461.66 330.95 461.95 331.48 462.18 331.93C462.273 332.098 462.347 332.276 462.4 332.46Z" fill="#E0E0E0"/>
<path d="M383.48 297.23C385.767 294.564 388.19 292.017 390.74 289.6C393.16 287.054 395.707 284.631 398.37 282.34C398.47 282.44 395.22 285.86 391.1 289.97C386.98 294.08 383.58 297.33 383.48 297.23Z" fill="#E0E0E0"/>
<path d="M398.37 297.23C395.707 294.939 393.16 292.516 390.74 289.97C388.19 287.553 385.767 285.006 383.48 282.34C383.58 282.24 386.99 285.49 391.11 289.6C395.23 293.71 398.47 297.13 398.37 297.23Z" fill="#E0E0E0"/>
<path d="M247.28 216.47C249.57 213.806 251.993 211.26 254.54 208.84C256.957 206.29 259.503 203.867 262.17 201.58C262.27 201.68 259.02 205.09 254.91 209.21C250.8 213.33 247.38 216.57 247.28 216.47Z" fill="#E0E0E0"/>
<path d="M262.17 216.47C262.07 216.57 258.65 213.32 254.54 209.21C251.993 206.791 249.57 204.244 247.28 201.58C249.944 203.87 252.49 206.293 254.91 208.84C259 213 262.27 216.37 262.17 216.47Z" fill="#E0E0E0"/>
<path d="M226.86 86.14C226.357 83.1614 226.023 80.1565 225.86 77.14C225.512 74.1526 225.335 71.1477 225.33 68.14C225.853 71.1172 226.204 74.1223 226.38 77.14C226.715 80.1281 226.875 83.1332 226.86 86.14Z" fill="#E0E0E0"/>
<path d="M235.1 76.33C232.122 76.8351 229.117 77.169 226.1 77.33C223.112 77.672 220.107 77.849 217.1 77.86C220.076 77.3306 223.082 76.98 226.1 76.81C229.088 76.4749 232.093 76.3146 235.1 76.33Z" fill="#E0E0E0"/>
<path d="M143.37 185C143.297 184.913 143.234 184.82 143.18 184.72L142.69 183.92L140.88 180.92L134.61 170.3L134.92 170.38L120.12 179C120.12 179.08 120.3 178.33 120.21 178.65V178.71L120.29 178.84L120.43 179.09L120.73 179.6L121.31 180.6C121.69 181.267 122.07 181.933 122.45 182.6L124.65 186.44L128.65 193.44L128.34 193.35L139.08 187.28L142.15 185.58L142.97 185.14L143.28 184.99C142.96 185.223 142.626 185.437 142.28 185.63L139.28 187.4L128.53 193.74L128.33 193.86L128.22 193.66L124.16 186.66L121.94 182.83C121.56 182.163 121.18 181.497 120.8 180.83L120.21 179.83L119.92 179.32L119.78 179.07L119.7 178.94V178.88C119.62 179.19 119.82 178.44 119.8 178.52L134.7 170L134.89 169.89L135 170.08L141.15 181L142.82 184C143.019 184.324 143.203 184.658 143.37 185Z" fill="#E0E0E0"/>
<path d="M470.9 281.33C470.9 281.33 470.77 280.99 470.45 280.46C469.982 279.703 469.28 279.121 468.45 278.8C467.858 278.569 467.218 278.487 466.586 278.562C465.955 278.637 465.352 278.866 464.83 279.23C464.387 279.544 464.016 279.95 463.743 280.42C463.47 280.889 463.3 281.412 463.246 281.953C463.192 282.494 463.255 283.04 463.43 283.554C463.605 284.069 463.888 284.54 464.261 284.935C464.633 285.331 465.087 285.642 465.59 285.848C466.093 286.053 466.634 286.149 467.177 286.127C467.72 286.106 468.252 285.968 468.737 285.724C469.222 285.479 469.65 285.134 469.99 284.71C470.545 284.03 470.861 283.187 470.89 282.31C470.89 281.68 470.82 281.31 470.89 281.31C471.06 281.615 471.14 281.962 471.12 282.31C471.167 283.251 470.88 284.179 470.31 284.93C469.883 285.495 469.32 285.943 468.673 286.232C468.026 286.52 467.316 286.64 466.61 286.58C465.737 286.501 464.91 286.153 464.243 285.586C463.575 285.018 463.099 284.258 462.88 283.409C462.661 282.561 462.71 281.665 463.019 280.846C463.329 280.026 463.885 279.322 464.61 278.83C465.193 278.439 465.864 278.2 466.563 278.136C467.262 278.071 467.965 278.183 468.61 278.46C469.481 278.836 470.19 279.51 470.61 280.36C470.796 280.65 470.896 280.986 470.9 281.33Z" fill="#E0E0E0"/>
<path d="M284 43.32C283.95 43.32 283.86 42.98 283.54 42.45C283.077 41.6895 282.373 41.1053 281.54 40.79C280.948 40.5597 280.308 40.4784 279.676 40.5534C279.045 40.6284 278.442 40.8573 277.92 41.22C277.477 41.5342 277.106 41.9399 276.833 42.4097C276.559 42.8794 276.39 43.4023 276.336 43.943C276.282 44.4837 276.345 45.0297 276.52 45.5442C276.695 46.0586 276.978 46.5295 277.351 46.9252C277.723 47.3208 278.176 47.6319 278.679 47.8375C279.182 48.0432 279.724 48.1385 280.267 48.1172C280.81 48.0959 281.342 47.9583 281.827 47.7138C282.312 47.4694 282.74 47.1236 283.08 46.7C283.635 46.0204 283.951 45.1771 283.98 44.3C283.98 43.67 283.91 43.3 283.98 43.3C284.138 43.6093 284.217 43.9528 284.21 44.3C284.254 45.2427 283.964 46.1707 283.39 46.92C282.963 47.4854 282.4 47.9333 281.753 48.2219C281.106 48.5104 280.396 48.6302 279.69 48.57C278.817 48.4905 277.99 48.1433 277.323 47.5757C276.655 47.0081 276.179 46.248 275.96 45.3995C275.741 44.5509 275.79 43.6555 276.1 42.8357C276.409 42.0159 276.965 41.3118 277.69 40.82C278.273 40.4291 278.944 40.1904 279.643 40.1258C280.342 40.0611 281.045 40.1726 281.69 40.45C282.561 40.8261 283.27 41.4995 283.69 42.35C283.871 42.643 283.978 42.9761 284 43.32Z" fill="#E0E0E0"/>
<path d="M98 157.77C98 157.77 97.86 157.43 97.54 156.9C97.0767 156.139 96.3729 155.555 95.54 155.24C94.9477 155.009 94.3076 154.927 93.6762 155.002C93.0448 155.077 92.4416 155.306 91.92 155.67C91.2848 156.113 90.8005 156.74 90.5323 157.466C90.2641 158.193 90.2249 158.984 90.4198 159.733C90.6148 160.483 91.0347 161.154 91.6229 161.658C92.2111 162.161 92.9395 162.473 93.71 162.55C94.3435 162.612 94.9825 162.516 95.5704 162.272C96.1582 162.028 96.6767 161.642 97.08 161.15C97.6294 160.467 97.9449 159.626 97.98 158.75C97.98 158.13 97.9 157.75 97.98 157.75C98.1378 158.059 98.2168 158.403 98.21 158.75C98.2596 159.695 97.9726 160.627 97.4 161.38C96.9738 161.937 96.4141 162.377 95.7726 162.66C95.1311 162.943 94.4286 163.06 93.73 163C92.8567 162.924 92.0286 162.578 91.3596 162.012C90.6906 161.445 90.2136 160.686 89.9943 159.837C89.775 158.988 89.8242 158.092 90.135 157.273C90.4458 156.453 91.0031 155.75 91.73 155.26C92.3126 154.869 92.9835 154.63 93.6819 154.563C94.3803 154.497 95.0842 154.606 95.73 154.88C96.5971 155.262 97.3042 155.934 97.73 156.78C97.8993 157.083 97.992 157.423 98 157.77Z" fill="#E0E0E0"/>
<path d="M453.72 141.78C453.66 141.78 453.5 141.05 452.84 139.88C452.046 138.486 450.873 137.346 449.457 136.591C448.041 135.837 446.44 135.501 444.84 135.62C443.356 135.737 441.93 136.248 440.71 137.1C440.045 137.549 439.455 138.099 438.96 138.73C438.436 139.379 438.015 140.104 437.71 140.88C437.056 142.521 436.944 144.328 437.39 146.037C437.836 147.746 438.817 149.268 440.19 150.38C440.832 150.914 441.554 151.342 442.33 151.65C443.071 151.953 443.853 152.145 444.65 152.22C446.133 152.362 447.628 152.107 448.98 151.48C450.154 150.934 451.182 150.119 451.98 149.1C453.166 147.613 453.821 145.772 453.84 143.87C453.84 142.52 453.61 141.79 453.68 141.78C453.749 141.952 453.802 142.129 453.84 142.31C453.964 142.821 454.034 143.344 454.05 143.87C454.09 145.535 453.647 147.176 452.776 148.595C451.905 150.014 450.642 151.151 449.14 151.87C447.722 152.549 446.146 152.832 444.58 152.69C443.735 152.623 442.906 152.428 442.12 152.11C441.291 151.793 440.52 151.34 439.84 150.77C438.378 149.595 437.333 147.98 436.859 146.165C436.385 144.349 436.509 142.43 437.21 140.69C437.529 139.865 437.982 139.098 438.55 138.42C439.077 137.753 439.704 137.173 440.41 136.7C441.619 135.869 443.019 135.357 444.479 135.214C445.94 135.071 447.412 135.3 448.76 135.88C450.575 136.653 452.066 138.032 452.98 139.78C453.229 140.243 453.423 140.733 453.56 141.24C453.627 141.415 453.681 141.596 453.72 141.78Z" fill="#E0E0E0"/>
<path d="M426.78 268.37C426.589 268.073 426.416 267.766 426.26 267.45L424.77 264.7C423.5 262.33 421.66 258.92 419.58 254.91L419.38 254.52H419.82L427.23 254.98L434.92 255.49H435.34L435.11 255.84C432.69 259.57 430.58 262.73 429.11 264.92L427.4 267.46C427.214 267.755 427.01 268.039 426.79 268.31C426.79 268.31 427 267.93 427.39 267.31C427.78 266.69 428.39 265.73 429.04 264.64C430.44 262.37 432.39 259.22 434.71 255.58L434.9 255.96L427.21 255.48L419.79 254.99L420.03 254.63C422.03 258.54 423.67 261.92 424.87 264.36C425.45 265.53 425.92 266.49 426.28 267.23C426.64 267.97 426.78 268.35 426.78 268.37Z" fill="#E0E0E0"/>
<path d="M357.05 79.5399C357.05 79.5399 356.87 79.2399 356.52 78.6099L355 75.8699C353.73 73.4999 351.89 70.0799 349.81 66.0699L349.61 65.6899H350.04L357.46 66.1599L365.15 66.6699H365.57L365.34 67.0199C362.92 70.7399 360.8 73.8999 359.34 76.0899L357.63 78.6399C357.444 78.9353 357.24 79.2192 357.02 79.4899C357.02 79.4899 357.23 79.1099 357.62 78.4899L359.26 75.8199C360.67 73.5499 362.61 70.4099 364.94 66.8199L365.13 67.1999L357.44 66.7199L350.02 66.2199L350.26 65.8699C352.26 69.7699 353.9 73.1499 355.1 75.5899C355.673 76.7699 356.143 77.7299 356.51 78.4699C356.87 79.1299 357.05 79.5099 357.05 79.5399Z" fill="#E0E0E0"/>
<path d="M236.1 302.58C236.266 302.268 236.453 301.967 236.66 301.68L238.38 299.08C239.85 296.84 241.98 293.6 244.54 289.85L244.74 289.55L244.94 289.85L249.71 296.85L253.42 302.39L253.69 302.78H253.22C248.22 302.78 243.85 302.69 240.83 302.64L237.31 302.57C236.5 302.57 236.07 302.57 236.1 302.57C236.13 302.57 236.6 302.57 237.45 302.52L241.05 302.46C244.11 302.41 248.33 302.33 253.22 302.32L253.01 302.71L249.28 297.18C247.6 294.69 246 292.3 244.54 290.11H244.94C242.43 293.73 240.25 296.79 238.67 299L236.81 301.6C236.37 302.23 236.12 302.57 236.1 302.58Z" fill="#E0E0E0"/>
<path d="M329.72 297.41C346.322 297.41 362.244 304.004 373.985 315.741C385.726 327.478 392.325 343.398 392.33 360V432.6H267.11V360C267.115 343.398 273.714 327.478 285.455 315.741C297.196 304.004 313.118 297.41 329.72 297.41Z" fill="#455A64"/>
<path d="M382.893 342.353C385.372 342.487 387.234 339.606 386.752 337.168C386.27 334.729 384.126 332.921 381.828 331.969C379.53 331.018 377.025 330.73 374.62 330.114C371.037 329.175 367.683 327.515 364.762 325.237C361.841 322.959 359.415 320.11 357.632 316.863C356.354 314.387 355.304 311.8 354.497 309.133C351.114 294.884 346.458 274.513 345.286 266.574C342.325 246.082 337.1 223.574 307.812 225.671C307.812 225.671 288.338 229.335 280.869 243.302C274.297 255.581 278.089 292.613 277.218 319.288L283.602 323.133L284.593 323.194C285.332 325.923 286.523 328.509 288.117 330.844C293.945 339.157 301.883 345.836 310.485 351.235C327.902 362.148 348.669 368.103 369.107 366.053C373.421 365.618 377.816 364.807 381.567 362.704C385.318 360.6 388.453 356.909 389.023 352.615C389.592 348.321 387.067 343.518 382.893 342.353Z" fill="url(#paint0_linear_5_5536)"/>
<path d="M171.18 397.4L164.88 401.86L157.88 418.67C157.88 418.67 159.78 419.95 161.25 418.59C162.72 417.23 168.34 407.46 168.34 407.46V413.24C168.347 414.374 168.769 415.465 169.527 416.309C170.284 417.153 171.324 417.69 172.45 417.82L182.83 421.06L195.57 417.43L196.66 402.27L171.18 397.4Z" fill="#FFBE9D"/>
<path d="M329.72 245.89L329.62 250.69L328.62 322.45C328.51 330.78 321.26 337.32 312.34 337.13C303.34 336.94 296.01 329.97 295.99 321.55C295.99 312.71 295.77 303.41 295.77 303.41C295.77 303.41 284.39 301.52 282.03 286.67C280.86 279.29 281.23 267.18 281.85 257.28C281.983 255.168 282.541 253.105 283.492 251.215C284.442 249.324 285.766 247.646 287.382 246.28C288.998 244.914 290.874 243.889 292.896 243.267C294.918 242.645 297.046 242.438 299.15 242.66L329.72 245.89Z" fill="#FFBE9D"/>
<path d="M284.93 265.71C284.927 266.207 285.117 266.686 285.46 267.046C285.804 267.406 286.273 267.619 286.77 267.64C287.015 267.665 287.263 267.639 287.499 267.565C287.734 267.491 287.952 267.37 288.139 267.209C288.326 267.048 288.478 266.851 288.587 266.629C288.695 266.408 288.758 266.166 288.77 265.92C288.774 265.671 288.729 265.423 288.637 265.192C288.545 264.961 288.408 264.749 288.234 264.571C288.06 264.393 287.853 264.25 287.624 264.152C287.395 264.054 287.149 264.002 286.9 264C286.658 263.979 286.414 264.008 286.183 264.083C285.951 264.159 285.738 264.28 285.554 264.439C285.37 264.598 285.221 264.793 285.113 265.011C285.006 265.23 284.944 265.467 284.93 265.71Z" fill="#263238"/>
<path d="M284.52 263.58C284.75 263.83 286.2 262.76 288.25 262.77C290.3 262.78 291.8 263.77 292.02 263.55C292.24 263.33 291.89 262.99 291.23 262.55C290.347 261.943 289.301 261.618 288.23 261.62C287.148 261.62 286.095 261.971 285.23 262.62C284.62 263 284.4 263.47 284.52 263.58Z" fill="#263238"/>
<path d="M305.45 265.71C305.442 266.207 305.629 266.688 305.971 267.049C306.313 267.409 306.783 267.622 307.28 267.64C307.525 267.662 307.772 267.634 308.006 267.559C308.24 267.484 308.457 267.363 308.643 267.202C308.83 267.042 308.982 266.846 309.091 266.626C309.201 266.405 309.265 266.165 309.28 265.92C309.285 265.423 309.096 264.943 308.752 264.584C308.408 264.225 307.937 264.016 307.44 264C307.196 263.975 306.949 264 306.715 264.074C306.481 264.148 306.264 264.268 306.078 264.428C305.892 264.588 305.74 264.784 305.632 265.004C305.524 265.225 305.462 265.465 305.45 265.71Z" fill="#263238"/>
<path d="M304.66 264C304.9 264.25 306.34 263.19 308.39 263.19C310.44 263.19 311.94 264.19 312.17 263.97C312.4 263.75 312.04 263.41 311.38 262.97C310.496 262.365 309.451 262.041 308.38 262.04C307.299 262.043 306.247 262.394 305.38 263.04C304.76 263.4 304.55 263.85 304.66 264Z" fill="#263238"/>
<path d="M297.23 279.16C296.147 278.83 295.03 278.629 293.9 278.56C293.37 278.51 292.9 278.4 292.79 278.05C292.749 277.51 292.871 276.97 293.14 276.5L294.69 272.5C296.84 266.83 298.39 262.16 298.16 262.08C297.93 262 296.01 266.52 293.86 272.2C293.34 273.6 292.86 274.93 292.37 276.2C292.059 276.818 291.964 277.522 292.1 278.2C292.177 278.383 292.294 278.547 292.443 278.678C292.592 278.81 292.769 278.906 292.96 278.96C293.25 279.042 293.549 279.085 293.85 279.09C294.969 279.259 296.105 279.282 297.23 279.16Z" fill="#263238"/>
<path d="M295.81 303.41C302.803 303.52 309.689 301.685 315.7 298.11C315.7 298.11 310.87 308.31 296.01 306.92L295.81 303.41Z" fill="#EB996E"/>
<path d="M298.09 284.1C298.481 283.61 298.989 283.227 299.568 282.988C300.147 282.748 300.777 282.659 301.4 282.73C301.853 282.77 302.292 282.902 302.693 283.117C303.093 283.332 303.446 283.625 303.73 283.98C304.004 284.321 304.166 284.738 304.195 285.175C304.224 285.611 304.117 286.046 303.89 286.42C303.563 286.789 303.132 287.051 302.655 287.172C302.177 287.293 301.673 287.268 301.21 287.1C300.243 286.757 299.352 286.227 298.59 285.54C298.357 285.375 298.157 285.168 298 284.93C297.924 284.818 297.884 284.685 297.884 284.55C297.884 284.414 297.924 284.282 298 284.17" fill="#EB996E"/>
<path d="M303.26 280.58C302.92 280.58 302.92 282.79 301.02 284.36C299.12 285.93 296.74 285.7 296.73 286.01C296.73 286.15 297.25 286.44 298.25 286.47C299.556 286.488 300.827 286.045 301.84 285.22C302.807 284.429 303.428 283.292 303.57 282.05C303.66 281.12 303.41 280.57 303.26 280.58Z" fill="#263238"/>
<path d="M304.13 255.93C304.34 256.49 306.38 256.23 308.79 256.52C311.2 256.81 313.14 257.46 313.45 256.96C313.6 256.72 313.26 256.2 312.45 255.66C311.404 254.999 310.22 254.585 308.99 254.45C307.76 254.314 306.515 254.462 305.35 254.88C304.49 255.23 304.05 255.67 304.13 255.93Z" fill="#263238"/>
<path d="M330.367 272.423C330.367 272.423 319.28 275.873 313.003 248.501C310.853 239.122 302.178 231.559 302.178 231.559L305.695 230.501C305.695 230.501 327.567 236.664 327.935 236.938C328.304 237.213 333.455 248.253 333.455 248.253L330.367 272.423Z" fill="url(#paint1_linear_5_5536)"/>
<path d="M339.404 311.819C339.241 310.58 339.162 309.331 339.17 308.081C339.218 304.672 339.565 301.274 340.208 297.925C340.59 295.802 341.005 293.477 341.454 290.985C341.94 288.328 342.26 285.643 342.412 282.946C342.593 279.978 342.368 276.998 341.742 274.091C341.393 272.562 340.888 271.074 340.235 269.649C339.549 268.189 338.7 266.811 337.703 265.543C335.693 263.071 333.449 260.798 331.004 258.757C328.659 256.747 326.415 254.737 324.419 252.694C320.863 249.094 317.643 245.177 314.799 240.991C312.879 238.176 311.138 235.243 309.587 232.209C309.038 231.137 308.636 230.293 308.375 229.71C308.247 229.429 308.147 229.214 308.08 229.04C308.041 228.968 308.01 228.891 307.986 228.812C308.033 228.88 308.073 228.952 308.107 229.027C308.187 229.179 308.294 229.402 308.428 229.697C308.703 230.266 309.098 231.104 309.688 232.169C311.276 235.174 313.041 238.081 314.973 240.877C317.832 245.032 321.058 248.922 324.613 252.5C326.623 254.51 328.847 256.519 331.191 258.529C333.667 260.576 335.938 262.86 337.971 265.348C338.983 266.634 339.844 268.032 340.536 269.515C341.198 270.959 341.708 272.467 342.057 274.017C342.675 276.951 342.889 279.955 342.693 282.946C342.527 285.644 342.196 288.328 341.702 290.985C341.24 293.477 340.811 295.802 340.422 297.919C339.761 301.255 339.382 304.641 339.29 308.041C339.29 309.246 339.29 310.184 339.364 310.814L339.411 311.537C339.421 311.631 339.418 311.726 339.404 311.819Z" fill="#F010BF"/>
<path d="M342.847 312.83C342.68 311.592 342.601 310.342 342.613 309.092C342.663 305.681 343.012 302.28 343.658 298.93C344.04 296.807 344.455 294.482 344.904 291.99C345.387 289.333 345.707 286.648 345.862 283.951C346.043 280.983 345.818 278.003 345.192 275.095C344.843 273.567 344.338 272.079 343.685 270.654C342.999 269.194 342.15 267.816 341.152 266.548C339.13 264.076 336.876 261.803 334.42 259.762C332.075 257.752 329.831 255.742 327.835 253.699C324.278 250.1 321.058 246.183 318.215 241.996C316.295 239.181 314.554 236.248 313.004 233.214C312.454 232.142 312.052 231.298 311.791 230.715L311.49 230.045C311.455 229.972 311.425 229.896 311.403 229.817L311.523 230.032C311.597 230.193 311.704 230.4 311.845 230.702C312.119 231.278 312.515 232.108 313.104 233.174C314.692 236.178 316.457 239.086 318.39 241.882C321.246 246.037 324.47 249.927 328.023 253.505C330.032 255.514 332.256 257.524 334.608 259.534C337.084 261.581 339.354 263.865 341.387 266.353C342.397 267.641 343.257 269.039 343.953 270.52C344.615 271.964 345.124 273.472 345.473 275.022C346.087 277.956 346.302 280.96 346.11 283.951C345.944 286.649 345.612 289.333 345.118 291.99C344.656 294.482 344.227 296.807 343.839 298.923C343.177 302.262 342.798 305.65 342.707 309.052C342.707 310.251 342.707 311.189 342.774 311.819C342.774 312.127 342.814 312.368 342.821 312.542C342.843 312.637 342.852 312.734 342.847 312.83Z" fill="#F010BF"/>
<path d="M285.27 257.65C285.63 258.12 287.04 257.65 288.74 257.65C290.44 257.65 291.88 257.96 292.21 257.48C292.35 257.24 292.13 256.77 291.5 256.33C290.66 255.793 289.676 255.527 288.68 255.57C287.681 255.587 286.713 255.915 285.91 256.51C285.31 256.94 285.11 257.42 285.27 257.65Z" fill="#263238"/>
<path d="M271.21 403.43L272.9 407.65L269.57 446.14H354.52L350.73 434.63L361.29 435.17C377.58 435.99 390.89 421.44 387.72 405.44C387.62 404.96 387.52 404.44 387.39 404C382.12 383.41 374.95 355.73 372.46 347.56C368.33 334.05 359.14 327.63 359.14 327.63H359C346.29 317.26 329 316.34 329 316.34L322.63 320.62C319.489 322.724 315.863 323.991 312.095 324.3C308.327 324.61 304.542 323.952 301.1 322.39C299.842 321.817 298.723 320.98 297.817 319.936C296.911 318.892 296.24 317.666 295.85 316.34C288.37 317.124 281.051 319.032 274.14 322C270.213 323.818 266.698 326.419 263.811 329.643C260.924 332.867 258.725 336.647 257.35 340.75L235.16 405.75L197.38 400.64L189.3 422.7L227.58 431.82C234.443 433.866 241.801 433.492 248.422 430.761C255.042 428.031 260.524 423.109 263.95 416.82L271.21 403.47M341.87 408.67C341.87 408.67 345.5 394.75 347.71 387.26L353.07 408.26L341.87 408.67Z" fill="url(#paint2_linear_5_5536)"/>
<path d="M370.76 435.39H370.32H369.04H364.04L345.33 435.46L280.22 435.55H280V435.3C280.33 427.36 280.69 419.03 281.05 410.43V410.19H281.29L305.48 409.43L353.07 408L352.84 408.31C351.06 401.82 349.61 395.5 348.21 389.47C346.81 383.44 345.56 377.66 344.33 372.22C343.743 369.5 343.167 366.86 342.6 364.3C341.982 361.843 341.527 359.347 341.24 356.83C341.026 354.501 341.026 352.158 341.24 349.83C341.417 347.687 341.806 345.567 342.4 343.5C343.376 339.947 345.339 336.744 348.06 334.26C350.119 332.447 352.657 331.266 355.37 330.86C357.054 330.588 358.776 330.684 360.42 331.14C360.84 331.262 361.251 331.412 361.65 331.59C361.92 331.7 362.05 331.77 362.05 331.77C362.05 331.77 361.5 331.52 360.4 331.22C358.767 330.799 357.063 330.728 355.4 331.01C352.728 331.445 350.237 332.635 348.22 334.44C345.554 336.906 343.637 340.074 342.69 343.58C342.114 345.632 341.739 347.735 341.57 349.86C341.353 352.188 341.353 354.532 341.57 356.86C341.863 359.361 342.324 361.84 342.95 364.28C343.52 366.83 344.1 369.47 344.71 372.19C345.94 377.63 347.25 383.39 348.62 389.42C349.99 395.45 351.49 401.77 353.28 408.24L353.36 408.54H353.05L305.51 410L281.31 410.76L281.56 410.51C281.19 419.11 280.83 427.44 280.49 435.38L280.24 435.12L345.35 435.22L364.06 435.29H369.06H370.34C370.482 435.315 370.622 435.349 370.76 435.39Z" fill="#263238"/>
<path d="M275.92 346.85C275.964 347.053 275.981 347.262 275.97 347.47C275.97 347.88 275.97 348.47 275.97 349.26C275.831 351.453 275.445 353.623 274.82 355.73C273.875 358.836 272.767 361.89 271.5 364.88C269.928 368.509 268.702 372.28 267.84 376.14C267.136 380.026 267.115 384.006 267.78 387.9C268.317 391.085 269.086 394.227 270.08 397.3C270.92 399.93 271.67 402.04 272.19 403.5L272.77 405.18C272.852 405.372 272.909 405.573 272.94 405.78C272.827 405.605 272.737 405.417 272.67 405.22C272.5 404.79 272.27 404.22 272 403.57C271.42 402.13 270.62 400.04 269.73 397.41C268.676 394.332 267.867 391.175 267.31 387.97C266.6 384.025 266.6 379.985 267.31 376.04C268.17 372.149 269.406 368.352 271 364.7C272.4 361.32 273.63 358.27 274.41 355.63C275.062 353.553 275.501 351.415 275.72 349.25C275.88 347.71 275.87 346.85 275.92 346.85Z" fill="#263238"/>
<path d="M353.07 408.27C353.64 408.065 354.247 407.987 354.85 408.04C356.308 408.077 357.741 408.418 359.06 409.04C360.413 409.623 361.575 410.576 362.41 411.79C362.783 412.272 363.009 412.852 363.06 413.46C362.97 413.46 362.76 412.84 362.11 412C361.237 410.918 360.115 410.064 358.84 409.51C357.574 408.936 356.223 408.575 354.84 408.44C354.247 408.424 353.655 408.367 353.07 408.27Z" fill="#263238"/>
<path d="M345.59 320.1C346.135 320.256 346.667 320.457 347.18 320.7C347.69 320.91 348.31 321.16 349.02 321.48L351.39 322.64C352.27 323.07 353.2 323.64 354.21 324.17C355.22 324.7 356.21 325.41 357.33 326.11C359.662 327.692 361.853 329.472 363.88 331.43C367.579 335.006 370.405 339.386 372.14 344.23C372.445 345.06 372.699 345.909 372.9 346.77C373.08 347.53 373.25 348.17 373.32 348.77C373.432 349.327 373.505 349.892 373.54 350.46C373.352 349.923 373.211 349.371 373.12 348.81C373.03 348.27 372.83 347.64 372.62 346.89C372.41 346.14 372.13 345.32 371.8 344.4C369.982 339.666 367.157 335.384 363.52 331.85C361.516 329.912 359.355 328.143 357.06 326.56C355.99 325.86 354.97 325.17 353.99 324.56C353.01 323.95 352.09 323.43 351.22 322.98L348.89 321.76L347.1 320.9C346.578 320.67 346.073 320.403 345.59 320.1Z" fill="#263238"/>
<g opacity="0.3">
<path d="M342.28 362C342.28 362 333.84 399.27 333.97 402.92C333.993 404.838 334.286 406.743 334.84 408.58L341.84 408.64L341.9 407.95L347.8 386.86L342.28 362Z" fill="black"/>
</g>
<path d="M268.81 410L263.31 407.77C263.31 407.77 256.92 396.93 255.61 397.45C254.3 397.97 254.11 401.28 256.71 406.27L249.48 404.64C249.48 404.64 234.48 412.64 235.19 413.55C235.9 414.46 237.31 416.67 240.58 414.77C243.85 412.87 248.13 410.6 248.13 410.6L256.58 412.51L245.93 414.51L236.36 424.24C236.36 424.24 239.81 426.54 242.52 423.75L269.02 427.92H280.24L280.84 413.09L268.81 410Z" fill="#FFBE9D"/>
<path d="M242.52 423.68C242.64 423.74 243.08 422.94 243.97 421.86C244.492 421.243 245.106 420.71 245.79 420.28C246.657 419.814 247.603 419.512 248.58 419.39C252.91 418.63 256.4 417.83 256.36 417.61C256.32 417.39 252.78 417.82 248.43 418.61C247.348 418.744 246.308 419.109 245.38 419.68C244.647 420.179 244.013 420.81 243.51 421.54C243.002 422.157 242.661 422.893 242.52 423.68Z" fill="#EB996E"/>
<path d="M246.68 424.5C246.78 424.5 246.83 423.95 247.55 423.75C248.27 423.55 249.48 423.37 250.71 423.17C253.21 422.77 255.28 422.68 255.29 422.44C255.3 422.2 253.18 421.95 250.59 422.36C249.471 422.508 248.376 422.797 247.33 423.22C247.148 423.297 246.986 423.415 246.856 423.564C246.727 423.713 246.632 423.889 246.58 424.08C246.53 424.37 246.63 424.51 246.68 424.5Z" fill="#EB996E"/>
<path d="M268.08 409.68C267.18 409.495 266.294 409.244 265.43 408.93C263.81 408.43 261.56 407.8 259.05 407.17L252.62 405.55C251.718 405.368 250.837 405.097 249.99 404.74C250.909 404.812 251.819 404.966 252.71 405.2C254.37 405.54 256.71 406.03 259.18 406.67C261.335 407.197 263.461 407.834 265.55 408.58C266.433 408.847 267.282 409.216 268.08 409.68Z" fill="#EB996E"/>
<path d="M360.31 130.74C360.266 130.382 360.246 130.021 360.25 129.66C360.25 128.913 360.23 127.913 360.19 126.66C360.19 124.08 360.13 120.51 360.08 116.25L360.3 116.48H345.84C345.84 116.54 346.34 115.99 346.1 116.22V120.09C346.1 121.37 346.1 122.62 346.1 123.83C346.1 126.26 346.1 128.55 346.1 130.65L345.87 130.43L356.29 130.54L359.29 130.6C359.98 130.6 360.36 130.6 360.38 130.65C360.049 130.697 359.714 130.717 359.38 130.71H356.47L345.91 130.83H345.69V130.6C345.69 128.5 345.69 126.21 345.69 123.78C345.69 122.57 345.69 121.32 345.69 120.04V116.17C345.46 116.41 346.01 115.85 345.95 115.91H360.41H360.64V116.13C360.64 120.45 360.55 124.07 360.53 126.69C360.53 127.89 360.51 128.86 360.47 129.6C360.439 129.983 360.386 130.364 360.31 130.74Z" fill="white"/>
<path d="M360.31 116.43C360.41 116.53 357.26 119.83 353.31 123.8C350.964 126.257 348.494 128.594 345.91 130.8C348.116 128.226 350.453 125.766 352.91 123.43C355.251 120.967 357.721 118.63 360.31 116.43Z" fill="white"/>
<path d="M360.08 130.65C357.543 128.477 355.126 126.166 352.84 123.73C350.425 121.417 348.132 118.981 345.97 116.43C348.5 118.615 350.917 120.928 353.21 123.36C355.62 125.674 357.913 128.107 360.08 130.65Z" fill="white"/>
<path d="M445.93 214.89C446.147 214.564 446.406 214.269 446.7 214.01C447.31 213.41 448.06 212.65 448.94 211.77C450.85 209.89 453.52 207.32 456.48 204.5L456.55 204.44V204.82C453.55 202.05 450.88 199.53 448.96 197.69L446.71 195.49C446.413 195.239 446.151 194.95 445.93 194.63C446.257 194.834 446.562 195.072 446.84 195.34L449.21 197.42C451.21 199.19 453.92 201.67 456.91 204.42L457.11 204.61L456.91 204.8L456.84 204.87C453.84 207.68 451.17 210.21 449.2 212.02L446.84 214.15C446.566 214.43 446.26 214.678 445.93 214.89Z" fill="white"/>
<path d="M422.87 194.63C422.653 194.955 422.394 195.251 422.1 195.51L419.85 197.75C417.94 199.63 415.28 202.2 412.32 205.02L412.25 205.08V204.7C415.25 207.47 417.91 209.99 419.84 211.83L422.09 214.03C422.387 214.281 422.649 214.57 422.87 214.89C422.54 214.69 422.234 214.451 421.96 214.18C421.31 213.62 420.52 212.92 419.59 212.1C417.59 210.33 414.88 207.85 411.89 205.1L411.69 204.91L411.89 204.72L411.96 204.65C414.96 201.84 417.63 199.31 419.6 197.5L421.96 195.37C422.238 195.093 422.543 194.846 422.87 194.63Z" fill="white"/>
<path d="M428.79 219.66C428.66 219.66 431.08 212.83 434.19 204.53C437.3 196.23 439.95 189.53 440.09 189.58C440.23 189.63 437.8 196.41 434.68 204.71C431.56 213.01 428.92 219.71 428.79 219.66Z" fill="white"/>
<path d="M472.12 234.16C472.12 234.16 472.12 233.76 472.12 233.02C472.12 232.28 472.12 231.18 472.12 229.76C472.12 226.9 472.12 222.76 472.06 217.42C472.06 206.79 471.99 191.61 471.95 173.3L472.16 173.51L397.16 173.56L397.42 173.3C397.42 195.3 397.42 216.07 397.42 234.16L397.18 233.92L451.33 234.04L466.68 234.1H470.76H471.81H472.17H470.81H466.81L451.51 234.16L397.21 234.28H396.98V234.05C396.98 215.96 396.98 195.19 396.98 173.19V173H397.25H472.25H472.47V173.22C472.47 191.58 472.39 206.82 472.36 217.48C472.36 222.77 472.36 226.92 472.3 229.77C472.3 231.17 472.3 232.25 472.3 232.99C472.3 233.73 472.12 234.16 472.12 234.16Z" fill="white"/>
<path d="M472.71 182.33C472.71 182.47 455.78 182.59 434.91 182.59C414.04 182.59 397.1 182.47 397.1 182.33C397.1 182.19 414.02 182.07 434.91 182.07C455.8 182.07 472.71 182.18 472.71 182.33Z" fill="white"/>
<path d="M403.25 177.88C403.25 178.078 403.191 178.271 403.081 178.435C402.972 178.6 402.815 178.728 402.633 178.804C402.45 178.879 402.249 178.899 402.055 178.861C401.861 178.822 401.683 178.727 401.543 178.587C401.403 178.447 401.308 178.269 401.269 178.075C401.231 177.881 401.25 177.68 401.326 177.497C401.402 177.314 401.53 177.158 401.694 177.048C401.859 176.939 402.052 176.88 402.25 176.88C402.515 176.88 402.77 176.985 402.957 177.173C403.145 177.36 403.25 177.615 403.25 177.88Z" fill="white"/>
<path d="M406.93 177.88C406.93 178.078 406.871 178.271 406.761 178.435C406.652 178.6 406.495 178.728 406.313 178.804C406.13 178.879 405.929 178.899 405.735 178.861C405.541 178.822 405.363 178.727 405.223 178.587C405.083 178.447 404.988 178.269 404.949 178.075C404.911 177.881 404.93 177.68 405.006 177.497C405.082 177.314 405.21 177.158 405.374 177.048C405.539 176.939 405.732 176.88 405.93 176.88C406.195 176.88 406.45 176.985 406.637 177.173C406.825 177.36 406.93 177.615 406.93 177.88Z" fill="white"/>
<path d="M410.61 177.88C410.61 178.078 410.551 178.271 410.441 178.435C410.332 178.6 410.175 178.728 409.993 178.804C409.81 178.879 409.609 178.899 409.415 178.861C409.221 178.822 409.043 178.727 408.903 178.587C408.763 178.447 408.668 178.269 408.629 178.075C408.591 177.881 408.61 177.68 408.686 177.497C408.762 177.314 408.89 177.158 409.054 177.048C409.219 176.939 409.412 176.88 409.61 176.88C409.875 176.88 410.13 176.985 410.317 177.173C410.505 177.36 410.61 177.615 410.61 177.88Z" fill="white"/>
<path d="M319.59 81.3101H260.34V123.55H319.59V81.3101Z" fill="#455A64"/>
<path d="M320.06 87.5799C320.06 87.7199 306.68 87.8399 290.19 87.8399C273.7 87.8399 260.32 87.7199 260.32 87.5799C260.32 87.4399 273.69 87.3199 290.19 87.3199C306.69 87.3199 320.06 87.4299 320.06 87.5799Z" fill="white"/>
<path d="M265.18 84.49C265.202 84.6535 265.174 84.8199 265.1 84.967C265.025 85.1141 264.907 85.2349 264.762 85.3131C264.616 85.3914 264.451 85.4234 264.287 85.4049C264.123 85.3864 263.968 85.3182 263.844 85.2096C263.72 85.1009 263.632 84.9569 263.592 84.7969C263.552 84.6368 263.561 84.4683 263.62 84.3139C263.678 84.1595 263.782 84.0266 263.918 83.933C264.054 83.8394 264.215 83.7895 264.38 83.79C264.578 83.7789 264.773 83.846 264.923 83.9769C265.072 84.1077 265.165 84.2919 265.18 84.49Z" fill="white"/>
<path d="M268.09 84.49C268.112 84.6535 268.084 84.8199 268.01 84.967C267.935 85.1141 267.817 85.2349 267.672 85.3131C267.526 85.3914 267.361 85.4234 267.197 85.4049C267.033 85.3864 266.878 85.3182 266.754 85.2096C266.63 85.1009 266.542 84.9569 266.502 84.7969C266.462 84.6368 266.471 84.4683 266.53 84.3139C266.588 84.1595 266.692 84.0266 266.828 83.933C266.964 83.8394 267.125 83.7895 267.29 83.79C267.488 83.7789 267.683 83.846 267.833 83.9769C267.982 84.1077 268.075 84.2919 268.09 84.49Z" fill="white"/>
<path d="M270.2 85.19C270.642 85.19 271 84.8766 271 84.49C271 84.1034 270.642 83.79 270.2 83.79C269.758 83.79 269.4 84.1034 269.4 84.49C269.4 84.8766 269.758 85.19 270.2 85.19Z" fill="white"/>
<path d="M282.26 104.42C282.26 106.96 280.42 108.49 277.39 108.49H274.19V112.25H272.93V100.34H277.39C280.42 100.34 282.26 101.87 282.26 104.42ZM281 104.42C281 102.52 279.74 101.42 277.36 101.42H274.19V107.37H277.36C279.74 107.38 281 106.29 281 104.42Z" fill="white"/>
<path d="M294.93 100.34V112.25H293.69V106.75H286.23V112.25H285V100.34H286.26V105.65H293.72V100.34H294.93Z" fill="white"/>
<path d="M308.12 104.42C308.12 106.96 306.29 108.49 303.26 108.49H300.06V112.25H298.8V100.34H303.26C306.29 100.34 308.12 101.87 308.12 104.42ZM306.87 104.42C306.87 102.52 305.61 101.42 303.23 101.42H300.06V107.37H303.23C305.61 107.38 306.87 106.29 306.87 104.42Z" fill="white"/>
<path d="M200 172L200.78 171.14C201.189 171.815 201.764 172.374 202.45 172.765C203.136 173.155 203.911 173.363 204.7 173.37C207.05 173.37 208.21 172.03 208.21 169.2V157.86H201.69V156.7H209.5V169.17C209.5 172.73 207.85 174.5 204.7 174.5C203.77 174.512 202.851 174.29 202.029 173.853C201.208 173.416 200.51 172.778 200 172Z" fill="#B9508B"/>
<path d="M213.2 172.78L213.78 171.78C215.137 172.826 216.807 173.386 218.52 173.37C221.3 173.37 222.41 172.37 222.41 170.9C222.41 167.06 213.68 169.9 213.68 164.71C213.68 162.71 215.34 161.1 218.68 161.1C220.281 161.072 221.855 161.521 223.2 162.39L222.62 163.39C221.445 162.583 220.045 162.166 218.62 162.2C216.05 162.2 214.91 163.26 214.91 164.68C214.91 168.68 223.65 165.84 223.65 170.86C223.65 173.01 221.8 174.47 218.44 174.47C216.551 174.524 214.701 173.927 213.2 172.78Z" fill="#B9508B"/>
<path d="M235.2 183.76C235.2 183.76 235.2 183.48 235.2 182.95C235.2 182.42 235.2 181.64 235.2 180.66C235.2 178.66 235.2 175.71 235.14 172C235.14 164.55 235.08 153.95 235.03 141.2L235.25 141.42H189.38C189.32 141.48 189.87 140.93 189.64 141.17V152.59C189.64 156.34 189.64 160 189.64 163.59C189.64 170.74 189.64 177.5 189.64 183.73L189.41 183.5L222.56 183.61L231.93 183.67H234.41H235H235.23H234.41H231.97L222.66 183.73L189.36 183.84H189.13V183.61C189.13 177.38 189.13 170.61 189.13 163.47C189.13 159.9 189.13 156.24 189.13 152.47V141.22L189.39 140.95H235.26H235.48V141.17C235.48 153.98 235.4 164.63 235.37 172.11C235.37 175.8 235.37 178.71 235.31 180.72C235.31 181.72 235.31 182.44 235.31 182.97C235.31 183.5 235.2 183.76 235.2 183.76Z" fill="#B9508B"/>
<path d="M235.1 147.52C235.1 147.66 224.85 147.78 212.2 147.78C199.55 147.78 189.3 147.66 189.3 147.52C189.3 147.38 199.55 147.25 212.2 147.25C224.85 147.25 235.1 147.37 235.1 147.52Z" fill="#B9508B"/>
<path d="M193.4 145.12C193.842 145.12 194.2 144.802 194.2 144.41C194.2 144.018 193.842 143.7 193.4 143.7C192.958 143.7 192.6 144.018 192.6 144.41C192.6 144.802 192.958 145.12 193.4 145.12Z" fill="#B9508B"/>
<path d="M197.13 144.41C197.15 144.573 197.12 144.739 197.044 144.885C196.968 145.031 196.849 145.15 196.703 145.227C196.558 145.303 196.392 145.334 196.229 145.314C196.065 145.294 195.912 145.225 195.789 145.116C195.665 145.007 195.578 144.862 195.539 144.702C195.5 144.542 195.511 144.374 195.57 144.221C195.628 144.067 195.733 143.935 195.869 143.842C196.004 143.749 196.165 143.699 196.33 143.7C196.53 143.689 196.726 143.757 196.876 143.89C197.026 144.023 197.117 144.21 197.13 144.41Z" fill="#B9508B"/>
<path d="M200.06 144.41C200.08 144.573 200.05 144.739 199.974 144.885C199.898 145.031 199.779 145.15 199.633 145.227C199.488 145.303 199.322 145.334 199.159 145.314C198.995 145.294 198.842 145.225 198.719 145.116C198.595 145.007 198.508 144.862 198.469 144.702C198.43 144.542 198.441 144.374 198.5 144.221C198.558 144.067 198.663 143.935 198.799 143.842C198.934 143.749 199.095 143.699 199.26 143.7C199.46 143.689 199.656 143.757 199.806 143.89C199.956 144.023 200.047 144.21 200.06 144.41Z" fill="#B9508B"/>
<path d="M402.47 101.58C402.453 100.575 402.641 99.5779 403.022 98.6485C403.404 97.7191 403.971 96.8772 404.689 96.1743C405.407 95.4714 406.26 94.9223 407.198 94.5604C408.135 94.1986 409.136 94.0317 410.14 94.0699C411.111 94.0308 412.079 94.1927 412.984 94.5455C413.889 94.8982 414.712 95.4343 415.4 96.1199L414.73 96.8199C414.131 96.2362 413.42 95.7801 412.639 95.4793C411.859 95.1785 411.026 95.0393 410.19 95.0699C409.306 95.0209 408.421 95.1526 407.59 95.4571C406.759 95.7616 405.998 96.2325 405.355 96.8409C404.712 97.4493 404.2 98.1824 403.85 98.9956C403.5 99.8087 403.319 100.685 403.319 101.57C403.319 102.455 403.5 103.331 403.85 104.144C404.2 104.957 404.712 105.691 405.355 106.299C405.998 106.907 406.759 107.378 407.59 107.683C408.421 107.987 409.306 108.119 410.19 108.07C411.027 108.097 411.861 107.955 412.642 107.65C413.422 107.346 414.132 106.887 414.73 106.3L415.4 107C414.713 107.688 413.891 108.227 412.986 108.583C412.081 108.94 411.112 109.105 410.14 109.07C409.138 109.108 408.138 108.942 407.202 108.581C406.266 108.221 405.414 107.673 404.696 106.972C403.979 106.272 403.411 105.432 403.028 104.505C402.646 103.578 402.456 102.583 402.47 101.58Z" fill="#B9508B"/>
<path d="M417.43 107.07L417.92 106.27C419.249 107.491 420.995 108.156 422.8 108.13C425.8 108.13 427.07 106.84 427.07 105.23C427.07 100.79 417.84 103.46 417.84 97.9999C417.84 95.9099 419.44 94.0699 423.08 94.0699C424.666 94.0615 426.218 94.5244 427.54 95.3999L427.13 96.2699C425.935 95.4559 424.526 95.014 423.08 94.9999C420.2 94.9999 418.91 96.3299 418.91 97.9999C418.91 102.44 428.15 99.8199 428.15 105.19C428.15 107.28 426.48 109.1 422.82 109.1C420.827 109.157 418.891 108.428 417.43 107.07Z" fill="#B9508B"/>
<path d="M430.3 107.07L430.79 106.27C432.116 107.496 433.864 108.163 435.67 108.13C438.67 108.13 439.94 106.84 439.94 105.23C439.94 100.79 430.7 103.46 430.7 98C430.7 95.91 432.31 94.07 435.95 94.07C437.532 94.0635 439.081 94.5264 440.4 95.4L440 96.27C438.819 95.4653 437.429 95.0239 436 95C433.12 95 431.83 96.33 431.83 98C431.83 102.44 441.07 99.82 441.07 105.19C441.07 107.28 439.4 109.1 435.74 109.1C433.729 109.17 431.773 108.44 430.3 107.07Z" fill="#B9508B"/>
<path d="M453.61 120.81C453.61 120.81 453.61 120.53 453.61 120.02C453.61 119.51 453.61 118.74 453.61 117.77C453.61 115.77 453.61 112.9 453.55 109.21C453.55 101.82 453.49 91.21 453.44 78.21L453.65 78.42L387.76 78.47L388.02 78.21C388.02 93.32 388.02 107.71 388.02 120.77L387.78 120.53L435.18 120.65L448.77 120.71H452.4H453.34C453.45 120.701 453.56 120.701 453.67 120.71H453.37H452.46H448.88L435.34 120.77L387.78 120.89H387.54V120.65C387.54 107.59 387.54 93.2 387.54 78.09V78H387.8L453.69 78.06H453.9V78.26C453.85 91.26 453.81 101.93 453.79 109.35C453.79 113.02 453.79 115.89 453.79 117.86C453.79 118.82 453.79 119.56 453.79 120.08C453.63 120.56 453.61 120.81 453.61 120.81Z" fill="#B9508B"/>
<path d="M453.61 84.5701C453.61 84.7101 438.85 84.8301 420.61 84.8301C402.37 84.8301 387.61 84.7101 387.61 84.5701C387.61 84.4301 402.37 84.3101 420.61 84.3101C438.85 84.3101 453.61 84.4201 453.61 84.5701Z" fill="#B9508B"/>
<path d="M392.59 81.46C392.61 81.6234 392.58 81.7891 392.504 81.935C392.428 82.081 392.309 82.2002 392.163 82.2769C392.018 82.3535 391.852 82.384 391.689 82.3641C391.525 82.3443 391.372 82.2751 391.249 82.1658C391.125 82.0566 391.038 81.9124 390.999 81.7524C390.96 81.5925 390.971 81.4245 391.03 81.2707C391.088 81.1169 391.193 80.9847 391.329 80.8917C391.464 80.7987 391.625 80.7493 391.79 80.75C391.99 80.7391 392.186 80.8075 392.336 80.9405C392.486 81.0734 392.577 81.2602 392.59 81.46Z" fill="#B9508B"/>
<path d="M395.52 81.46C395.54 81.6234 395.51 81.7891 395.434 81.935C395.358 82.081 395.239 82.2002 395.093 82.2769C394.948 82.3535 394.782 82.384 394.619 82.3641C394.455 82.3443 394.302 82.2751 394.179 82.1658C394.055 82.0566 393.968 81.9124 393.929 81.7524C393.89 81.5925 393.901 81.4245 393.96 81.2707C394.018 81.1169 394.123 80.9847 394.259 80.8917C394.394 80.7987 394.555 80.7493 394.72 80.75C394.92 80.7391 395.116 80.8075 395.266 80.9405C395.416 81.0734 395.507 81.2602 395.52 81.46Z" fill="#B9508B"/>
<path d="M398.45 81.46C398.47 81.6234 398.44 81.7891 398.364 81.935C398.288 82.081 398.169 82.2002 398.023 82.2769C397.878 82.3535 397.712 82.384 397.549 82.3641C397.385 82.3443 397.232 82.2751 397.109 82.1658C396.985 82.0566 396.898 81.9124 396.859 81.7524C396.82 81.5925 396.831 81.4245 396.89 81.2707C396.948 81.1169 397.053 80.9847 397.189 80.8917C397.324 80.7987 397.485 80.7493 397.65 80.75C397.85 80.7391 398.046 80.8075 398.196 80.9405C398.346 81.0734 398.437 81.2602 398.45 81.46Z" fill="#B9508B"/>
<path d="M368.64 142.86H285.9V201.84H368.64V142.86Z" fill="#B9508B"/>
<path d="M313.81 170.24V182H311.1V177.2H305.78V182H303.07V170.24H305.78V174.86H311.1V170.24H313.81Z" fill="white"/>
<path d="M319 172.45H315.25V170.24H325.46V172.45H321.71V182H319V172.45Z" fill="white"/>
<path d="M341.92 170.24H344.63V179.74H350.5V182H341.92V170.24Z" fill="white"/>
<path d="M337.68 182V175L334.23 180.78H333L329.57 175.15V182H327V170.24H329.24L333.63 177.52L337.94 170.24H340.16V181.95L337.68 182Z" fill="white"/>
<path d="M369.3 151.61C369.3 151.75 350.62 151.87 327.58 151.87C304.54 151.87 285.87 151.75 285.87 151.61C285.87 151.47 304.54 151.35 327.58 151.35C350.62 151.35 369.3 151.46 369.3 151.61Z" fill="white"/>
<path d="M292.66 147.3C292.684 147.525 292.64 147.752 292.532 147.951C292.425 148.151 292.26 148.313 292.058 148.416C291.857 148.52 291.629 148.56 291.404 148.531C291.18 148.502 290.969 148.406 290.8 148.255C290.632 148.105 290.512 147.906 290.459 147.686C290.405 147.467 290.419 147.236 290.499 147.024C290.579 146.812 290.721 146.63 290.907 146.5C291.093 146.371 291.314 146.301 291.54 146.3C291.679 146.292 291.819 146.311 291.95 146.357C292.082 146.403 292.204 146.475 292.308 146.568C292.412 146.66 292.496 146.773 292.557 146.899C292.617 147.024 292.652 147.161 292.66 147.3Z" fill="white"/>
<path d="M296.72 147.3C296.744 147.525 296.7 147.752 296.592 147.951C296.485 148.151 296.32 148.313 296.118 148.416C295.917 148.52 295.689 148.56 295.464 148.531C295.24 148.502 295.029 148.406 294.861 148.255C294.692 148.105 294.572 147.906 294.519 147.686C294.465 147.467 294.479 147.236 294.559 147.024C294.639 146.812 294.781 146.63 294.967 146.5C295.153 146.371 295.374 146.301 295.6 146.3C295.739 146.292 295.879 146.311 296.01 146.357C296.142 146.403 296.264 146.475 296.368 146.568C296.472 146.66 296.556 146.773 296.617 146.899C296.677 147.024 296.712 147.161 296.72 147.3Z" fill="white"/>
<path d="M300.78 147.3C300.804 147.525 300.76 147.752 300.652 147.951C300.545 148.151 300.38 148.313 300.178 148.416C299.977 148.52 299.749 148.56 299.524 148.531C299.3 148.502 299.089 148.406 298.92 148.255C298.752 148.105 298.632 147.906 298.579 147.686C298.525 147.467 298.539 147.236 298.619 147.024C298.699 146.812 298.841 146.63 299.027 146.5C299.213 146.371 299.434 146.301 299.66 146.3C299.799 146.292 299.939 146.311 300.07 146.357C300.202 146.403 300.324 146.475 300.428 146.568C300.532 146.66 300.616 146.773 300.677 146.899C300.737 147.024 300.772 147.161 300.78 147.3Z" fill="white"/>
<path d="M115.37 259C115.362 258.934 115.362 258.866 115.37 258.8V258.25C115.37 257.74 115.37 257.03 115.37 256.11C115.37 254.22 115.37 251.5 115.31 248.05C115.31 241.12 115.24 231.26 115.19 219.45L115.42 219.67H75.87C75.81 219.72 76.36 219.18 76.13 219.42V224.78C76.13 226.56 76.13 228.33 76.13 230.07V240.29C76.13 246.93 76.13 253.2 76.13 258.95L75.91 258.72L104.51 258.84L112.57 258.9H114.71H115.26H114.73H112.63L104.63 258.96L75.89 259.08H75.66V259C75.66 253.25 75.66 247 75.66 240.34V219.46C75.42 219.69 75.97 219.13 75.92 219.19H115.47H115.69V219.42C115.69 231.29 115.61 241.2 115.58 248.16C115.58 251.59 115.58 254.3 115.52 256.16C115.52 257.06 115.52 257.76 115.52 258.26C115.52 258.48 115.52 258.65 115.52 258.79C115.479 258.866 115.429 258.937 115.37 259Z" fill="white"/>
<path d="M115.37 219.84C115.47 219.94 106.72 228.84 95.83 239.69C84.94 250.54 76 259.28 75.92 259.18C75.84 259.08 84.56 250.18 95.46 239.32C106.36 228.46 115.27 219.74 115.37 219.84Z" fill="white"/>
<path d="M114.74 258.75C114.64 258.85 105.92 250.22 95.27 239.48C84.62 228.74 76.06 219.94 76.16 219.84C76.26 219.74 84.98 228.37 95.64 239.11C106.3 249.85 114.84 258.64 114.74 258.75Z" fill="white"/>
<path d="M197.82 230.05C197.82 230.19 182.1 230.31 162.72 230.31C143.34 230.31 127.63 230.19 127.63 230.05C127.63 229.91 143.34 229.79 162.72 229.79C182.1 229.79 197.82 229.91 197.82 230.05Z" fill="white"/>
<path d="M197.82 236.36C197.82 236.5 182.1 236.62 162.72 236.62C143.34 236.62 127.63 236.5 127.63 236.36C127.63 236.22 143.34 236.1 162.72 236.1C182.1 236.1 197.82 236.21 197.82 236.36Z" fill="white"/>
<path d="M197.82 242.66C197.82 242.81 182.1 242.92 162.72 242.92C143.34 242.92 127.63 242.81 127.63 242.66C127.63 242.51 143.34 242.4 162.72 242.4C182.1 242.4 197.82 242.52 197.82 242.66Z" fill="white"/>
<path d="M197.82 249C197.82 249.14 182.1 249.26 162.72 249.26C143.34 249.26 127.63 249.14 127.63 249C127.63 248.86 143.34 248.74 162.72 248.74C182.1 248.74 197.82 248.82 197.82 249Z" fill="white"/>
<path d="M159.38 223.74C159.38 223.89 152.15 224.01 143.25 224.01C134.35 224.01 127.12 223.89 127.12 223.74C127.12 223.59 134.34 223.48 143.25 223.48C152.16 223.48 159.38 223.6 159.38 223.74Z" fill="white"/>
<path d="M63.36 207.51H75.13H108.06L222.36 207.71H222.61V208C222.61 227.5 222.61 248.64 222.61 270.58V270.84H208.07L208.33 270.58V284.17L207.89 283.73L194.89 270.73L195.07 270.8L63.36 270.7H63.18V270.53C63.18 250.89 63.26 235.12 63.28 224.25C63.28 218.84 63.28 214.65 63.28 211.8C63.28 210.4 63.28 209.32 63.28 208.59C63.28 207.86 63.28 207.51 63.28 207.51C63.28 207.51 63.28 207.89 63.28 208.63C63.28 209.37 63.28 210.45 63.28 211.87C63.28 214.73 63.28 218.93 63.28 224.35C63.28 235.2 63.34 250.93 63.38 270.53L63.2 270.35L194.94 270.27H195.05L195.12 270.34L208.12 283.34L207.67 283.53V270.27H222.22L221.96 270.53C221.96 248.59 221.96 227.45 221.96 207.95L222.21 208.2L108.08 207.76L75.08 207.6H66.27H63.99L63.36 207.51Z" fill="white"/>
<path d="M468.57 410.84H381.77V432.62H468.57V410.84Z" fill="#455A64"/>
<path d="M456.12 417.95H403.22V425.51H456.12V417.95Z" fill="#263238"/>
<path d="M396.55 422.17C396.552 423.007 396.306 423.826 395.842 424.523C395.378 425.22 394.718 425.763 393.946 426.085C393.173 426.407 392.322 426.492 391.501 426.33C390.68 426.168 389.925 425.766 389.333 425.175C388.74 424.583 388.336 423.83 388.172 423.009C388.008 422.188 388.091 421.337 388.411 420.564C388.731 419.79 389.273 419.129 389.969 418.664C390.665 418.198 391.483 417.95 392.32 417.95C392.875 417.949 393.425 418.057 393.938 418.268C394.451 418.48 394.918 418.79 395.31 419.182C395.703 419.574 396.015 420.04 396.228 420.553C396.441 421.065 396.55 421.615 396.55 422.17Z" fill="#263238"/>
<path d="M460.25 398.97H390.92V410.75H460.25V398.97Z" fill="#263238"/>
<path d="M477.72 377.2H390.92V398.98H477.72V377.2Z" fill="#CC5898"/>
<path d="M417.35 387.54C417.419 386.443 417.808 385.389 418.469 384.511C419.131 383.632 420.035 382.967 421.071 382.598C422.107 382.228 423.228 382.171 424.296 382.433C425.364 382.694 426.332 383.264 427.08 384.07L425.57 385.47C425.256 385.094 424.863 384.793 424.418 384.587C423.974 384.381 423.49 384.277 423 384.28C422.165 384.326 421.38 384.69 420.805 385.298C420.231 385.905 419.911 386.709 419.911 387.545C419.911 388.381 420.231 389.185 420.805 389.792C421.38 390.4 422.165 390.764 423 390.81C423.492 390.815 423.978 390.708 424.423 390.499C424.868 390.289 425.26 389.982 425.57 389.6L427.08 391C426.337 391.815 425.37 392.393 424.3 392.66C423.23 392.928 422.104 392.874 421.065 392.504C420.026 392.134 419.119 391.466 418.458 390.583C417.797 389.7 417.412 388.641 417.35 387.54Z" fill="white"/>
<path d="M439.43 388.43H436.89V390.91H435V388.43H432.48V386.65H435V384.18H436.88V386.65H439.42L439.43 388.43Z" fill="white"/>
<path d="M448.25 388.43H445.71V390.91H443.83V388.43H441.31V386.65H443.83V384.18H445.71V386.65H448.25V388.43Z" fill="white"/>
<path d="M403.82 398.37C403.68 398.37 403.56 393.63 403.56 387.78C403.56 381.93 403.68 377.18 403.82 377.18C403.96 377.18 404.08 381.93 404.08 387.78C404.08 393.63 404 398.37 403.82 398.37Z" fill="#FAFAFA"/>
<path d="M400 398.37C399.86 398.37 399.74 393.63 399.74 387.78C399.74 381.93 399.86 377.18 400 377.18C400.263 380.707 400.35 384.244 400.26 387.78C400.35 391.312 400.264 394.846 400 398.37Z" fill="#FAFAFA"/>
<path d="M463.9 398.37C463.636 394.846 463.55 391.312 463.64 387.78C463.55 384.244 463.637 380.707 463.9 377.18C464.04 377.18 464.16 381.93 464.16 387.78C464.16 393.63 464 398.37 463.9 398.37Z" fill="#FAFAFA"/>
<path d="M460.12 398.37C459.98 398.37 459.86 393.63 459.86 387.78C459.86 381.93 459.98 377.18 460.12 377.18C460.26 377.18 460.38 381.93 460.38 387.78C460.38 393.63 460.26 398.37 460.12 398.37Z" fill="#FAFAFA"/>
<path d="M419.6 404.72C419.59 404.407 419.645 404.094 419.762 403.803C419.878 403.512 420.054 403.248 420.277 403.029C420.501 402.809 420.768 402.638 421.061 402.526C421.354 402.414 421.667 402.365 421.98 402.38C422.335 402.357 422.691 402.429 423.009 402.589C423.327 402.749 423.597 402.991 423.79 403.29L423.33 403.61C423.182 403.39 422.98 403.212 422.744 403.091C422.508 402.971 422.245 402.912 421.98 402.92C421.503 402.92 421.045 403.11 420.707 403.447C420.37 403.785 420.18 404.243 420.18 404.72C420.18 405.197 420.37 405.655 420.707 405.993C421.045 406.33 421.503 406.52 421.98 406.52C422.243 406.53 422.504 406.473 422.74 406.356C422.976 406.239 423.179 406.065 423.33 405.85L423.79 406.16C423.598 406.461 423.329 406.705 423.01 406.867C422.692 407.029 422.336 407.102 421.98 407.08C421.665 407.094 421.351 407.043 421.058 406.929C420.764 406.816 420.497 406.643 420.273 406.421C420.05 406.2 419.874 405.934 419.758 405.641C419.643 405.348 419.589 405.035 419.6 404.72Z" fill="#EBEBEB"/>
<path d="M424.37 406.51L424.66 406.01C425.136 406.356 425.711 406.539 426.3 406.53C427.18 406.53 427.54 406.23 427.54 405.78C427.54 404.57 424.54 405.52 424.54 403.69C424.54 402.94 425.19 402.38 426.37 402.38C426.943 402.365 427.509 402.514 428 402.81L427.73 403.31C427.328 403.042 426.853 402.902 426.37 402.91C425.53 402.91 425.17 403.24 425.17 403.68C425.17 404.93 428.17 403.98 428.17 405.76C428.17 406.56 427.47 407.08 426.27 407.08C425.592 407.1 424.925 406.9 424.37 406.51Z" fill="#EBEBEB"/>
<path d="M428.67 406.51L428.96 406.01C429.435 406.358 430.011 406.541 430.6 406.53C431.48 406.53 431.84 406.23 431.84 405.78C431.84 404.57 428.84 405.52 428.84 403.69C428.84 402.94 429.49 402.38 430.67 402.38C431.243 402.365 431.809 402.514 432.3 402.81L432.03 403.31C431.628 403.042 431.153 402.902 430.67 402.91C429.83 402.91 429.47 403.24 429.47 403.68C429.47 404.93 432.47 403.98 432.47 405.76C432.47 406.56 431.77 407.08 430.57 407.08C429.892 407.1 429.225 406.9 428.67 406.51Z" fill="#EBEBEB"/>
<path d="M401.12 406.96C402.28 406.96 403.22 406.02 403.22 404.86C403.22 403.7 402.28 402.76 401.12 402.76C399.96 402.76 399.02 403.7 399.02 404.86C399.02 406.02 399.96 406.96 401.12 406.96Z" fill="#EBEBEB"/>
<path d="M453.75 406.96C454.91 406.96 455.85 406.02 455.85 404.86C455.85 403.7 454.91 402.76 453.75 402.76C452.59 402.76 451.65 403.7 451.65 404.86C451.65 406.02 452.59 406.96 453.75 406.96Z" fill="#EBEBEB"/>
<path d="M189.47 294H43.65C37.0226 294 31.65 299.373 31.65 306V397.71C31.65 404.337 37.0226 409.71 43.65 409.71H189.47C196.097 409.71 201.47 404.337 201.47 397.71V306C201.47 299.373 196.097 294 189.47 294Z" fill="#263238"/>
<path d="M88.18 382.21L78.78 435.44H122.9L130.89 381.12L88.18 382.21Z" fill="#455A64"/>
<path d="M182.73 294H36.91C30.2826 294 24.91 299.373 24.91 306V397.71C24.91 404.337 30.2826 409.71 36.91 409.71H182.73C189.357 409.71 194.73 404.337 194.73 397.71V306C194.73 299.373 189.357 294 182.73 294Z" fill="#455A64"/>
<path d="M126.69 409.71L130.89 381.12L132.06 409.71H126.69Z" fill="#263238"/>
<path d="M88.42 379.25C88.56 379.25 87.49 386.36 86.03 395.07C84.57 403.78 83.28 410.83 83.13 410.81C82.98 410.79 84.06 403.7 85.52 394.99C86.98 386.28 88.28 379.23 88.42 379.25Z" fill="#263238"/>
<path d="M115.39 347.85C115.39 348.952 115.063 350.029 114.451 350.945C113.839 351.861 112.969 352.574 111.952 352.996C110.934 353.418 109.814 353.528 108.733 353.313C107.653 353.098 106.66 352.568 105.881 351.789C105.102 351.01 104.572 350.017 104.357 348.937C104.142 347.856 104.252 346.736 104.674 345.718C105.096 344.701 105.809 343.831 106.725 343.219C107.641 342.607 108.718 342.28 109.82 342.28C110.552 342.279 111.277 342.422 111.953 342.701C112.629 342.981 113.244 343.391 113.762 343.909C114.279 344.426 114.689 345.041 114.969 345.717C115.248 346.393 115.391 347.118 115.39 347.85Z" fill="#FAFAFA"/>
<path d="M109.82 353.44C108.714 353.44 107.634 353.112 106.714 352.498C105.795 351.884 105.079 351.011 104.655 349.989C104.232 348.968 104.122 347.844 104.337 346.759C104.553 345.675 105.085 344.679 105.867 343.897C106.649 343.116 107.645 342.583 108.729 342.367C109.814 342.152 110.938 342.262 111.959 342.686C112.981 343.109 113.854 343.825 114.468 344.744C115.082 345.664 115.41 346.744 115.41 347.85C115.407 349.332 114.818 350.752 113.77 351.8C112.722 352.848 111.302 353.437 109.82 353.44ZM109.82 342.31C108.724 342.31 107.653 342.635 106.742 343.244C105.831 343.852 105.121 344.718 104.702 345.73C104.282 346.742 104.173 347.856 104.386 348.931C104.6 350.005 105.128 350.993 105.903 351.767C106.677 352.542 107.665 353.07 108.739 353.284C109.814 353.497 110.928 353.388 111.94 352.968C112.952 352.549 113.818 351.839 114.426 350.928C115.035 350.017 115.36 348.946 115.36 347.85C115.357 346.382 114.773 344.974 113.734 343.936C112.696 342.897 111.288 342.313 109.82 342.31Z" fill="#263238"/>
<path d="M67.41 328.44C67.41 328.44 70.03 324.74 69.14 320.63C69.14 320.63 69.14 319.3 67.14 316.69C66.5099 315.859 65.7925 315.098 65 314.42C64.2934 313.804 63.5338 313.252 62.73 312.77C62.46 312.6 62.29 312.51 62.29 312.51C59.352 310.851 55.9051 310.335 52.61 311.06C50.0834 311.579 47.7765 312.86 46 314.73C45.4077 315.35 44.9 316.046 44.49 316.8C43.4515 318.525 42.7828 320.447 42.5263 322.443C42.2699 324.44 42.4311 326.469 43 328.4C43.08 328.66 43.17 328.92 43.27 329.17V329.26C43.27 329.35 43.34 329.44 43.38 329.52L43.46 329.7C43.55 329.91 43.63 330.11 43.73 330.31C43.974 330.809 44.2479 331.293 44.55 331.76C44.8546 332.308 45.2276 332.816 45.66 333.27C46.4868 334.252 47.5448 335.013 48.7389 335.484C49.9329 335.955 51.2254 336.122 52.5 335.97C53.0091 336.896 53.837 337.607 54.83 337.97C56.76 338.41 59.9 337.44 62.18 336.22C64.46 335 67.73 332.67 67.68 330.68C67.6513 329.932 67.5338 329.19 67.33 328.47L67.41 328.44Z" fill="#263238"/>
<path d="M50.45 311.06C47.9433 311.586 45.6577 312.867 43.9 314.73C43.3045 315.35 42.7935 316.046 42.38 316.8C41.05 319.36 38.76 324.29 41.69 330.31C44.62 336.33 48.96 336.18 50.92 335.9C52.88 335.62 65.3 328.44 65.3 328.44C65.3 328.44 69.1 323.09 66.01 318.11C63.36 313.85 57.68 309.51 50.45 311.06Z" fill="#DA5FA1"/>
<path d="M49.54 334.23C49.54 334.23 50.88 337.51 52.81 337.94C54.74 338.37 57.87 337.41 60.15 336.19C62.43 334.97 65.7 332.64 65.65 330.65C65.6 328.66 64.65 326.45 64.32 326.27C62.7732 325.859 61.1577 325.776 59.5768 326.025C57.996 326.275 56.4848 326.852 55.14 327.72C52.5455 329.139 50.5552 331.453 49.54 334.23Z" fill="#F5F5F5"/>
<g opacity="0.4">
<path d="M56.26 315.25C56.8781 316.399 57.1417 317.706 57.0176 319.005C56.8934 320.304 56.387 321.537 55.5624 322.548C54.7377 323.559 53.6319 324.303 52.3845 324.686C51.1371 325.069 49.8043 325.074 48.5543 324.699C47.3043 324.325 46.1933 323.589 45.3617 322.583C44.5301 321.578 44.0151 320.348 43.882 319.05C43.7488 317.752 44.0034 316.444 44.6135 315.29C45.2237 314.137 46.162 313.19 47.31 312.57C48.0734 312.158 48.9107 311.9 49.774 311.811C50.6372 311.723 51.5095 311.805 52.3408 312.054C53.1721 312.303 53.9461 312.713 54.6186 313.262C55.2912 313.81 55.8489 314.486 56.26 315.25Z" fill="white"/>
</g>
<g opacity="0.4">
<path d="M43.62 333.27C44.4757 331.425 44.6321 329.332 44.06 327.38C43.4294 325.479 42.1238 323.874 40.39 322.87C40.2485 325.133 40.5893 327.399 41.39 329.52C41.9006 330.895 42.6561 332.165 43.62 333.27Z" fill="white"/>
</g>
<g opacity="0.4">
<path d="M67.06 320.64C65.0505 320.336 63.2183 319.317 61.9 317.77C60.6564 316.309 60.0226 314.426 60.13 312.51C62.0132 313.601 63.6862 315.02 65.07 316.7C67.05 319.32 67.06 320.64 67.06 320.64Z" fill="white"/>
</g>
<path d="M49.56 334.19C49.5926 334.456 49.674 334.714 49.8 334.95C49.867 335.067 49.9677 335.161 50.089 335.22C50.2103 335.279 50.3466 335.3 50.48 335.28C50.77 335.21 50.93 334.93 51.06 334.67C52.4468 332.056 54.5532 329.894 57.13 328.44C58.1556 327.817 59.3134 327.443 60.51 327.35C61.59 327.35 62.64 327.62 63.72 327.68C63.9958 327.711 64.2751 327.67 64.53 327.56C64.77 327.44 64.76 327.16 64.7 326.9C64.6828 326.775 64.6403 326.654 64.5749 326.546C64.5096 326.438 64.4229 326.344 64.32 326.27C61.48 325.1 57.96 325.96 55.32 327.49C52.7746 329.096 50.7711 331.43 49.57 334.19" fill="#E0E0E0"/>
<path d="M258.88 425.81H162.27V432.62H258.88V425.81Z" fill="#455A64"/>
<path d="M139.16 423.19H144C146.058 423.19 148.032 424.008 149.487 425.463C150.942 426.918 151.76 428.892 151.76 430.95V432.62H131.46V430.95C131.46 428.902 132.269 426.937 133.712 425.484C135.154 424.03 137.112 423.206 139.16 423.19Z" fill="#455A64"/>
<path d="M151.41 430.5C148.157 430.757 144.892 430.844 141.63 430.76C138.364 430.844 135.097 430.758 131.84 430.5C135.096 430.236 138.364 430.15 141.63 430.24C144.892 430.15 148.157 430.236 151.41 430.5Z" fill="#263238"/>
<path d="M141.78 423.11C142.012 424.292 142.07 425.501 141.95 426.7C141.998 427.901 141.877 429.103 141.59 430.27C141.365 429.09 141.311 427.885 141.43 426.69C141.379 425.486 141.497 424.281 141.78 423.11Z" fill="#263238"/>
<path d="M482.3 432.62H17.71V446.14H482.3V432.62Z" fill="#263238"/>
<defs>
<linearGradient id="paint0_linear_5_5536" x1="333.004" y1="225.535" x2="333.004" y2="366.454" gradientUnits="userSpaceOnUse">
<stop stop-color="#342D31"/>
<stop offset="1" stop-color="#7D2D58"/>
</linearGradient>
<linearGradient id="paint1_linear_5_5536" x1="317.817" y1="230.501" x2="317.817" y2="272.562" gradientUnits="userSpaceOnUse">
<stop stop-color="#2B2B2B"/>
<stop offset="1" stop-color="#613B4F"/>
</linearGradient>
<linearGradient id="paint2_linear_5_5536" x1="350.087" y1="321.611" x2="320.497" y2="471.513" gradientUnits="userSpaceOnUse">
<stop stop-color="#B33A79"/>
<stop offset="0.40625" stop-color="#E664A8"/>
<stop offset="1" stop-color="#291031"/>
</linearGradient>
</defs>
</svg>
